<?xml version="1.0" encoding="utf-8" standalone="no"?>
<!DOCTYPE svg PUBLIC "-//W3C//DTD SVG 1.1//EN"
  "http://www.w3.org/Graphics/SVG/1.1/DTD/svg11.dtd">
<svg xmlns:xlink="http://www.w3.org/1999/xlink" width="418.929375pt" height="329.635594pt" viewBox="0 0 418.929375 329.635594" xmlns="http://www.w3.org/2000/svg" version="1.1">
 <metadata>
  <rdf:RDF xmlns:dc="http://purl.org/dc/elements/1.1/" xmlns:cc="http://creativecommons.org/ns#" xmlns:rdf="http://www.w3.org/1999/02/22-rdf-syntax-ns#">
   <cc:Work>
    <dc:type rdf:resource="http://purl.org/dc/dcmitype/StillImage"/>
    <dc:date>2022-11-23T01:45:25.473377</dc:date>
    <dc:format>image/svg+xml</dc:format>
    <dc:creator>
     <cc:Agent>
      <dc:title>Matplotlib v3.5.2, https://matplotlib.org/</dc:title>
     </cc:Agent>
    </dc:creator>
   </cc:Work>
  </rdf:RDF>
 </metadata>
 <defs>
  <style type="text/css">*{stroke-linejoin: round; stroke-linecap: butt}</style>
 </defs>
 <g id="figure_1">
  <g id="patch_1">
   <path d="M 0 329.635594 
L 418.929375 329.635594 
L 418.929375 0 
L 0 0 
z
" style="fill: #ffffff"/>
  </g>
  <g id="axes_1">
   <g id="patch_2">
    <path d="M 46.964375 287.901375 
L 404.084375 287.901375 
L 404.084375 21.789375 
L 46.964375 21.789375 
z
" style="fill: #eaeaf2"/>
   </g>
   <g id="matplotlib.axis_1">
    <g id="xtick_1">
     <g id="line2d_1">
      <path d="M 46.964375 287.901375 
L 46.964375 21.789375 
" clip-path="url(#p17c5cacc16)" style="fill: none; stroke: #ffffff; stroke-linecap: round"/>
     </g>
     <g id="text_1">
      <!-- 0.0 -->
      <g style="fill: #262626" transform="translate(39.319375 305.274969)scale(0.11 -0.11)">
       <defs>
        <path id="ArialMT-30" d="M 266 2259 
Q 266 3072 433 3567 
Q 600 4063 929 4331 
Q 1259 4600 1759 4600 
Q 2128 4600 2406 4451 
Q 2684 4303 2865 4023 
Q 3047 3744 3150 3342 
Q 3253 2941 3253 2259 
Q 3253 1453 3087 958 
Q 2922 463 2592 192 
Q 2263 -78 1759 -78 
Q 1097 -78 719 397 
Q 266 969 266 2259 
z
M 844 2259 
Q 844 1131 1108 757 
Q 1372 384 1759 384 
Q 2147 384 2411 759 
Q 2675 1134 2675 2259 
Q 2675 3391 2411 3762 
Q 2147 4134 1753 4134 
Q 1366 4134 1134 3806 
Q 844 3388 844 2259 
z
" transform="scale(0.015625)"/>
        <path id="ArialMT-2e" d="M 581 0 
L 581 641 
L 1222 641 
L 1222 0 
L 581 0 
z
" transform="scale(0.015625)"/>
       </defs>
       <use xlink:href="#ArialMT-30"/>
       <use xlink:href="#ArialMT-2e" x="55.615234"/>
       <use xlink:href="#ArialMT-30" x="83.398438"/>
      </g>
     </g>
    </g>
    <g id="xtick_2">
     <g id="line2d_2">
      <path d="M 118.388375 287.901375 
L 118.388375 21.789375 
" clip-path="url(#p17c5cacc16)" style="fill: none; stroke: #ffffff; stroke-linecap: round"/>
     </g>
     <g id="text_2">
      <!-- 0.2 -->
      <g style="fill: #262626" transform="translate(110.743375 305.274969)scale(0.11 -0.11)">
       <defs>
        <path id="ArialMT-32" d="M 3222 541 
L 3222 0 
L 194 0 
Q 188 203 259 391 
Q 375 700 629 1000 
Q 884 1300 1366 1694 
Q 2113 2306 2375 2664 
Q 2638 3022 2638 3341 
Q 2638 3675 2398 3904 
Q 2159 4134 1775 4134 
Q 1369 4134 1125 3890 
Q 881 3647 878 3216 
L 300 3275 
Q 359 3922 746 4261 
Q 1134 4600 1788 4600 
Q 2447 4600 2831 4234 
Q 3216 3869 3216 3328 
Q 3216 3053 3103 2787 
Q 2991 2522 2730 2228 
Q 2469 1934 1863 1422 
Q 1356 997 1212 845 
Q 1069 694 975 541 
L 3222 541 
z
" transform="scale(0.015625)"/>
       </defs>
       <use xlink:href="#ArialMT-30"/>
       <use xlink:href="#ArialMT-2e" x="55.615234"/>
       <use xlink:href="#ArialMT-32" x="83.398438"/>
      </g>
     </g>
    </g>
    <g id="xtick_3">
     <g id="line2d_3">
      <path d="M 189.812375 287.901375 
L 189.812375 21.789375 
" clip-path="url(#p17c5cacc16)" style="fill: none; stroke: #ffffff; stroke-linecap: round"/>
     </g>
     <g id="text_3">
      <!-- 0.4 -->
      <g style="fill: #262626" transform="translate(182.167375 305.274969)scale(0.11 -0.11)">
       <defs>
        <path id="ArialMT-34" d="M 2069 0 
L 2069 1097 
L 81 1097 
L 81 1613 
L 2172 4581 
L 2631 4581 
L 2631 1613 
L 3250 1613 
L 3250 1097 
L 2631 1097 
L 2631 0 
L 2069 0 
z
M 2069 1613 
L 2069 3678 
L 634 1613 
L 2069 1613 
z
" transform="scale(0.015625)"/>
       </defs>
       <use xlink:href="#ArialMT-30"/>
       <use xlink:href="#ArialMT-2e" x="55.615234"/>
       <use xlink:href="#ArialMT-34" x="83.398438"/>
      </g>
     </g>
    </g>
    <g id="xtick_4">
     <g id="line2d_4">
      <path d="M 261.236375 287.901375 
L 261.236375 21.789375 
" clip-path="url(#p17c5cacc16)" style="fill: none; stroke: #ffffff; stroke-linecap: round"/>
     </g>
     <g id="text_4">
      <!-- 0.6 -->
      <g style="fill: #262626" transform="translate(253.591375 305.274969)scale(0.11 -0.11)">
       <defs>
        <path id="ArialMT-36" d="M 3184 3459 
L 2625 3416 
Q 2550 3747 2413 3897 
Q 2184 4138 1850 4138 
Q 1581 4138 1378 3988 
Q 1113 3794 959 3422 
Q 806 3050 800 2363 
Q 1003 2672 1297 2822 
Q 1591 2972 1913 2972 
Q 2475 2972 2870 2558 
Q 3266 2144 3266 1488 
Q 3266 1056 3080 686 
Q 2894 316 2569 119 
Q 2244 -78 1831 -78 
Q 1128 -78 684 439 
Q 241 956 241 2144 
Q 241 3472 731 4075 
Q 1159 4600 1884 4600 
Q 2425 4600 2770 4297 
Q 3116 3994 3184 3459 
z
M 888 1484 
Q 888 1194 1011 928 
Q 1134 663 1356 523 
Q 1578 384 1822 384 
Q 2178 384 2434 671 
Q 2691 959 2691 1453 
Q 2691 1928 2437 2201 
Q 2184 2475 1800 2475 
Q 1419 2475 1153 2201 
Q 888 1928 888 1484 
z
" transform="scale(0.015625)"/>
       </defs>
       <use xlink:href="#ArialMT-30"/>
       <use xlink:href="#ArialMT-2e" x="55.615234"/>
       <use xlink:href="#ArialMT-36" x="83.398438"/>
      </g>
     </g>
    </g>
    <g id="xtick_5">
     <g id="line2d_5">
      <path d="M 332.660375 287.901375 
L 332.660375 21.789375 
" clip-path="url(#p17c5cacc16)" style="fill: none; stroke: #ffffff; stroke-linecap: round"/>
     </g>
     <g id="text_5">
      <!-- 0.8 -->
      <g style="fill: #262626" transform="translate(325.015375 305.274969)scale(0.11 -0.11)">
       <defs>
        <path id="ArialMT-38" d="M 1131 2484 
Q 781 2613 612 2850 
Q 444 3088 444 3419 
Q 444 3919 803 4259 
Q 1163 4600 1759 4600 
Q 2359 4600 2725 4251 
Q 3091 3903 3091 3403 
Q 3091 3084 2923 2848 
Q 2756 2613 2416 2484 
Q 2838 2347 3058 2040 
Q 3278 1734 3278 1309 
Q 3278 722 2862 322 
Q 2447 -78 1769 -78 
Q 1091 -78 675 323 
Q 259 725 259 1325 
Q 259 1772 486 2073 
Q 713 2375 1131 2484 
z
M 1019 3438 
Q 1019 3113 1228 2906 
Q 1438 2700 1772 2700 
Q 2097 2700 2305 2904 
Q 2513 3109 2513 3406 
Q 2513 3716 2298 3927 
Q 2084 4138 1766 4138 
Q 1444 4138 1231 3931 
Q 1019 3725 1019 3438 
z
M 838 1322 
Q 838 1081 952 856 
Q 1066 631 1291 507 
Q 1516 384 1775 384 
Q 2178 384 2440 643 
Q 2703 903 2703 1303 
Q 2703 1709 2433 1975 
Q 2163 2241 1756 2241 
Q 1359 2241 1098 1978 
Q 838 1716 838 1322 
z
" transform="scale(0.015625)"/>
       </defs>
       <use xlink:href="#ArialMT-30"/>
       <use xlink:href="#ArialMT-2e" x="55.615234"/>
       <use xlink:href="#ArialMT-38" x="83.398438"/>
      </g>
     </g>
    </g>
    <g id="xtick_6">
     <g id="line2d_6">
      <path d="M 404.084375 287.901375 
L 404.084375 21.789375 
" clip-path="url(#p17c5cacc16)" style="fill: none; stroke: #ffffff; stroke-linecap: round"/>
     </g>
     <g id="text_6">
      <!-- 1.0 -->
      <g style="fill: #262626" transform="translate(396.439375 305.274969)scale(0.11 -0.11)">
       <defs>
        <path id="ArialMT-31" d="M 2384 0 
L 1822 0 
L 1822 3584 
Q 1619 3391 1289 3197 
Q 959 3003 697 2906 
L 697 3450 
Q 1169 3672 1522 3987 
Q 1875 4303 2022 4600 
L 2384 4600 
L 2384 0 
z
" transform="scale(0.015625)"/>
       </defs>
       <use xlink:href="#ArialMT-31"/>
       <use xlink:href="#ArialMT-2e" x="55.615234"/>
       <use xlink:href="#ArialMT-30" x="83.398438"/>
      </g>
     </g>
    </g>
    <g id="text_7">
     <!-- False Positive Rate -->
     <g style="fill: #262626" transform="translate(173.838125 320.050594)scale(0.12 -0.12)">
      <defs>
       <path id="ArialMT-46" d="M 525 0 
L 525 4581 
L 3616 4581 
L 3616 4041 
L 1131 4041 
L 1131 2622 
L 3281 2622 
L 3281 2081 
L 1131 2081 
L 1131 0 
L 525 0 
z
" transform="scale(0.015625)"/>
       <path id="ArialMT-61" d="M 2588 409 
Q 2275 144 1986 34 
Q 1697 -75 1366 -75 
Q 819 -75 525 192 
Q 231 459 231 875 
Q 231 1119 342 1320 
Q 453 1522 633 1644 
Q 813 1766 1038 1828 
Q 1203 1872 1538 1913 
Q 2219 1994 2541 2106 
Q 2544 2222 2544 2253 
Q 2544 2597 2384 2738 
Q 2169 2928 1744 2928 
Q 1347 2928 1158 2789 
Q 969 2650 878 2297 
L 328 2372 
Q 403 2725 575 2942 
Q 747 3159 1072 3276 
Q 1397 3394 1825 3394 
Q 2250 3394 2515 3294 
Q 2781 3194 2906 3042 
Q 3031 2891 3081 2659 
Q 3109 2516 3109 2141 
L 3109 1391 
Q 3109 606 3145 398 
Q 3181 191 3288 0 
L 2700 0 
Q 2613 175 2588 409 
z
M 2541 1666 
Q 2234 1541 1622 1453 
Q 1275 1403 1131 1340 
Q 988 1278 909 1158 
Q 831 1038 831 891 
Q 831 666 1001 516 
Q 1172 366 1500 366 
Q 1825 366 2078 508 
Q 2331 650 2450 897 
Q 2541 1088 2541 1459 
L 2541 1666 
z
" transform="scale(0.015625)"/>
       <path id="ArialMT-6c" d="M 409 0 
L 409 4581 
L 972 4581 
L 972 0 
L 409 0 
z
" transform="scale(0.015625)"/>
       <path id="ArialMT-73" d="M 197 991 
L 753 1078 
Q 800 744 1014 566 
Q 1228 388 1613 388 
Q 2000 388 2187 545 
Q 2375 703 2375 916 
Q 2375 1106 2209 1216 
Q 2094 1291 1634 1406 
Q 1016 1563 777 1677 
Q 538 1791 414 1992 
Q 291 2194 291 2438 
Q 291 2659 392 2848 
Q 494 3038 669 3163 
Q 800 3259 1026 3326 
Q 1253 3394 1513 3394 
Q 1903 3394 2198 3281 
Q 2494 3169 2634 2976 
Q 2775 2784 2828 2463 
L 2278 2388 
Q 2241 2644 2061 2787 
Q 1881 2931 1553 2931 
Q 1166 2931 1000 2803 
Q 834 2675 834 2503 
Q 834 2394 903 2306 
Q 972 2216 1119 2156 
Q 1203 2125 1616 2013 
Q 2213 1853 2448 1751 
Q 2684 1650 2818 1456 
Q 2953 1263 2953 975 
Q 2953 694 2789 445 
Q 2625 197 2315 61 
Q 2006 -75 1616 -75 
Q 969 -75 630 194 
Q 291 463 197 991 
z
" transform="scale(0.015625)"/>
       <path id="ArialMT-65" d="M 2694 1069 
L 3275 997 
Q 3138 488 2766 206 
Q 2394 -75 1816 -75 
Q 1088 -75 661 373 
Q 234 822 234 1631 
Q 234 2469 665 2931 
Q 1097 3394 1784 3394 
Q 2450 3394 2872 2941 
Q 3294 2488 3294 1666 
Q 3294 1616 3291 1516 
L 816 1516 
Q 847 969 1125 678 
Q 1403 388 1819 388 
Q 2128 388 2347 550 
Q 2566 713 2694 1069 
z
M 847 1978 
L 2700 1978 
Q 2663 2397 2488 2606 
Q 2219 2931 1791 2931 
Q 1403 2931 1139 2672 
Q 875 2413 847 1978 
z
" transform="scale(0.015625)"/>
       <path id="ArialMT-20" transform="scale(0.015625)"/>
       <path id="ArialMT-50" d="M 494 0 
L 494 4581 
L 2222 4581 
Q 2678 4581 2919 4538 
Q 3256 4481 3484 4323 
Q 3713 4166 3852 3881 
Q 3991 3597 3991 3256 
Q 3991 2672 3619 2267 
Q 3247 1863 2275 1863 
L 1100 1863 
L 1100 0 
L 494 0 
z
M 1100 2403 
L 2284 2403 
Q 2872 2403 3119 2622 
Q 3366 2841 3366 3238 
Q 3366 3525 3220 3729 
Q 3075 3934 2838 4000 
Q 2684 4041 2272 4041 
L 1100 4041 
L 1100 2403 
z
" transform="scale(0.015625)"/>
       <path id="ArialMT-6f" d="M 213 1659 
Q 213 2581 725 3025 
Q 1153 3394 1769 3394 
Q 2453 3394 2887 2945 
Q 3322 2497 3322 1706 
Q 3322 1066 3130 698 
Q 2938 331 2570 128 
Q 2203 -75 1769 -75 
Q 1072 -75 642 372 
Q 213 819 213 1659 
z
M 791 1659 
Q 791 1022 1069 705 
Q 1347 388 1769 388 
Q 2188 388 2466 706 
Q 2744 1025 2744 1678 
Q 2744 2294 2464 2611 
Q 2184 2928 1769 2928 
Q 1347 2928 1069 2612 
Q 791 2297 791 1659 
z
" transform="scale(0.015625)"/>
       <path id="ArialMT-69" d="M 425 3934 
L 425 4581 
L 988 4581 
L 988 3934 
L 425 3934 
z
M 425 0 
L 425 3319 
L 988 3319 
L 988 0 
L 425 0 
z
" transform="scale(0.015625)"/>
       <path id="ArialMT-74" d="M 1650 503 
L 1731 6 
Q 1494 -44 1306 -44 
Q 1000 -44 831 53 
Q 663 150 594 308 
Q 525 466 525 972 
L 525 2881 
L 113 2881 
L 113 3319 
L 525 3319 
L 525 4141 
L 1084 4478 
L 1084 3319 
L 1650 3319 
L 1650 2881 
L 1084 2881 
L 1084 941 
Q 1084 700 1114 631 
Q 1144 563 1211 522 
Q 1278 481 1403 481 
Q 1497 481 1650 503 
z
" transform="scale(0.015625)"/>
       <path id="ArialMT-76" d="M 1344 0 
L 81 3319 
L 675 3319 
L 1388 1331 
Q 1503 1009 1600 663 
Q 1675 925 1809 1294 
L 2547 3319 
L 3125 3319 
L 1869 0 
L 1344 0 
z
" transform="scale(0.015625)"/>
       <path id="ArialMT-52" d="M 503 0 
L 503 4581 
L 2534 4581 
Q 3147 4581 3465 4457 
Q 3784 4334 3975 4021 
Q 4166 3709 4166 3331 
Q 4166 2844 3850 2509 
Q 3534 2175 2875 2084 
Q 3116 1969 3241 1856 
Q 3506 1613 3744 1247 
L 4541 0 
L 3778 0 
L 3172 953 
Q 2906 1366 2734 1584 
Q 2563 1803 2427 1890 
Q 2291 1978 2150 2013 
Q 2047 2034 1813 2034 
L 1109 2034 
L 1109 0 
L 503 0 
z
M 1109 2559 
L 2413 2559 
Q 2828 2559 3062 2645 
Q 3297 2731 3419 2920 
Q 3541 3109 3541 3331 
Q 3541 3656 3305 3865 
Q 3069 4075 2559 4075 
L 1109 4075 
L 1109 2559 
z
" transform="scale(0.015625)"/>
      </defs>
      <use xlink:href="#ArialMT-46"/>
      <use xlink:href="#ArialMT-61" x="61.083984"/>
      <use xlink:href="#ArialMT-6c" x="116.699219"/>
      <use xlink:href="#ArialMT-73" x="138.916016"/>
      <use xlink:href="#ArialMT-65" x="188.916016"/>
      <use xlink:href="#ArialMT-20" x="244.53125"/>
      <use xlink:href="#ArialMT-50" x="272.314453"/>
      <use xlink:href="#ArialMT-6f" x="339.013672"/>
      <use xlink:href="#ArialMT-73" x="394.628906"/>
      <use xlink:href="#ArialMT-69" x="444.628906"/>
      <use xlink:href="#ArialMT-74" x="466.845703"/>
      <use xlink:href="#ArialMT-69" x="494.628906"/>
      <use xlink:href="#ArialMT-76" x="516.845703"/>
      <use xlink:href="#ArialMT-65" x="566.845703"/>
      <use xlink:href="#ArialMT-20" x="622.460938"/>
      <use xlink:href="#ArialMT-52" x="650.244141"/>
      <use xlink:href="#ArialMT-61" x="722.460938"/>
      <use xlink:href="#ArialMT-74" x="778.076172"/>
      <use xlink:href="#ArialMT-65" x="805.859375"/>
     </g>
    </g>
   </g>
   <g id="matplotlib.axis_2">
    <g id="ytick_1">
     <g id="line2d_7">
      <path d="M 46.964375 287.901375 
L 404.084375 287.901375 
" clip-path="url(#p17c5cacc16)" style="fill: none; stroke: #ffffff; stroke-linecap: round"/>
     </g>
     <g id="text_8">
      <!-- 0.0 -->
      <g style="fill: #262626" transform="translate(22.174375 291.838172)scale(0.11 -0.11)">
       <use xlink:href="#ArialMT-30"/>
       <use xlink:href="#ArialMT-2e" x="55.615234"/>
       <use xlink:href="#ArialMT-30" x="83.398438"/>
      </g>
     </g>
    </g>
    <g id="ytick_2">
     <g id="line2d_8">
      <path d="M 46.964375 237.213375 
L 404.084375 237.213375 
" clip-path="url(#p17c5cacc16)" style="fill: none; stroke: #ffffff; stroke-linecap: round"/>
     </g>
     <g id="text_9">
      <!-- 0.2 -->
      <g style="fill: #262626" transform="translate(22.174375 241.150172)scale(0.11 -0.11)">
       <use xlink:href="#ArialMT-30"/>
       <use xlink:href="#ArialMT-2e" x="55.615234"/>
       <use xlink:href="#ArialMT-32" x="83.398438"/>
      </g>
     </g>
    </g>
    <g id="ytick_3">
     <g id="line2d_9">
      <path d="M 46.964375 186.525375 
L 404.084375 186.525375 
" clip-path="url(#p17c5cacc16)" style="fill: none; stroke: #ffffff; stroke-linecap: round"/>
     </g>
     <g id="text_10">
      <!-- 0.4 -->
      <g style="fill: #262626" transform="translate(22.174375 190.462172)scale(0.11 -0.11)">
       <use xlink:href="#ArialMT-30"/>
       <use xlink:href="#ArialMT-2e" x="55.615234"/>
       <use xlink:href="#ArialMT-34" x="83.398438"/>
      </g>
     </g>
    </g>
    <g id="ytick_4">
     <g id="line2d_10">
      <path d="M 46.964375 135.837375 
L 404.084375 135.837375 
" clip-path="url(#p17c5cacc16)" style="fill: none; stroke: #ffffff; stroke-linecap: round"/>
     </g>
     <g id="text_11">
      <!-- 0.6 -->
      <g style="fill: #262626" transform="translate(22.174375 139.774172)scale(0.11 -0.11)">
       <use xlink:href="#ArialMT-30"/>
       <use xlink:href="#ArialMT-2e" x="55.615234"/>
       <use xlink:href="#ArialMT-36" x="83.398438"/>
      </g>
     </g>
    </g>
    <g id="ytick_5">
     <g id="line2d_11">
      <path d="M 46.964375 85.149375 
L 404.084375 85.149375 
" clip-path="url(#p17c5cacc16)" style="fill: none; stroke: #ffffff; stroke-linecap: round"/>
     </g>
     <g id="text_12">
      <!-- 0.8 -->
      <g style="fill: #262626" transform="translate(22.174375 89.086172)scale(0.11 -0.11)">
       <use xlink:href="#ArialMT-30"/>
       <use xlink:href="#ArialMT-2e" x="55.615234"/>
       <use xlink:href="#ArialMT-38" x="83.398438"/>
      </g>
     </g>
    </g>
    <g id="ytick_6">
     <g id="line2d_12">
      <path d="M 46.964375 34.461375 
L 404.084375 34.461375 
" clip-path="url(#p17c5cacc16)" style="fill: none; stroke: #ffffff; stroke-linecap: round"/>
     </g>
     <g id="text_13">
      <!-- 1.0 -->
      <g style="fill: #262626" transform="translate(22.174375 38.398172)scale(0.11 -0.11)">
       <use xlink:href="#ArialMT-31"/>
       <use xlink:href="#ArialMT-2e" x="55.615234"/>
       <use xlink:href="#ArialMT-30" x="83.398438"/>
      </g>
     </g>
    </g>
    <g id="text_14">
     <!-- True Positive Rate -->
     <g style="fill: #262626" transform="translate(15.789375 203.971312)rotate(-90)scale(0.12 -0.12)">
      <defs>
       <path id="ArialMT-54" d="M 1659 0 
L 1659 4041 
L 150 4041 
L 150 4581 
L 3781 4581 
L 3781 4041 
L 2266 4041 
L 2266 0 
L 1659 0 
z
" transform="scale(0.015625)"/>
       <path id="ArialMT-72" d="M 416 0 
L 416 3319 
L 922 3319 
L 922 2816 
Q 1116 3169 1280 3281 
Q 1444 3394 1641 3394 
Q 1925 3394 2219 3213 
L 2025 2691 
Q 1819 2813 1613 2813 
Q 1428 2813 1281 2702 
Q 1134 2591 1072 2394 
Q 978 2094 978 1738 
L 978 0 
L 416 0 
z
" transform="scale(0.015625)"/>
       <path id="ArialMT-75" d="M 2597 0 
L 2597 488 
Q 2209 -75 1544 -75 
Q 1250 -75 995 37 
Q 741 150 617 320 
Q 494 491 444 738 
Q 409 903 409 1263 
L 409 3319 
L 972 3319 
L 972 1478 
Q 972 1038 1006 884 
Q 1059 663 1231 536 
Q 1403 409 1656 409 
Q 1909 409 2131 539 
Q 2353 669 2445 892 
Q 2538 1116 2538 1541 
L 2538 3319 
L 3100 3319 
L 3100 0 
L 2597 0 
z
" transform="scale(0.015625)"/>
      </defs>
      <use xlink:href="#ArialMT-54"/>
      <use xlink:href="#ArialMT-72" x="57.333984"/>
      <use xlink:href="#ArialMT-75" x="90.634766"/>
      <use xlink:href="#ArialMT-65" x="146.25"/>
      <use xlink:href="#ArialMT-20" x="201.865234"/>
      <use xlink:href="#ArialMT-50" x="229.648438"/>
      <use xlink:href="#ArialMT-6f" x="296.347656"/>
      <use xlink:href="#ArialMT-73" x="351.962891"/>
      <use xlink:href="#ArialMT-69" x="401.962891"/>
      <use xlink:href="#ArialMT-74" x="424.179688"/>
      <use xlink:href="#ArialMT-69" x="451.962891"/>
      <use xlink:href="#ArialMT-76" x="474.179688"/>
      <use xlink:href="#ArialMT-65" x="524.179688"/>
      <use xlink:href="#ArialMT-20" x="579.794922"/>
      <use xlink:href="#ArialMT-52" x="607.578125"/>
      <use xlink:href="#ArialMT-61" x="679.794922"/>
      <use xlink:href="#ArialMT-74" x="735.410156"/>
      <use xlink:href="#ArialMT-65" x="763.193359"/>
     </g>
    </g>
   </g>
   <g id="line2d_13">
    <path d="M 46.964375 287.901375 
L 47.303963 286.272539 
L 47.912181 284.851639 
L 48.444371 283.361427 
L 49.726696 280.346347 
L 50.78094 277.851108 
L 50.786009 277.851108 
L 51.470253 276.048992 
L 52.012581 275.390526 
L 53.609152 272.825975 
L 55.661886 268.771212 
L 57.005033 265.51354 
L 57.258457 265.270947 
L 57.537223 264.751106 
L 57.739963 264.09264 
L 58.555988 262.879677 
L 59.84845 260.488406 
L 59.985299 259.829941 
L 62.017759 255.913802 
L 63.264605 253.106659 
L 66.736514 246.591313 
L 67.273773 245.863536 
L 67.876922 245.274382 
L 68.627057 243.680202 
L 69.255548 242.779143 
L 71.075132 238.655068 
L 71.303214 237.857978 
L 72.702114 235.501364 
L 73.84759 234.045808 
L 74.577452 232.486284 
L 74.866355 232.34766 
L 75.98142 230.614855 
L 77.18265 228.431521 
L 80.629216 222.886547 
L 80.801544 222.782578 
L 81.029626 222.124113 
L 82.839073 219.351625 
L 84.744822 215.955328 
L 85.545641 214.43046 
L 86.047421 213.875963 
L 88.201525 210.202417 
L 91.065215 205.905062 
L 91.860967 204.41485 
L 93.54877 202.404796 
L 94.167125 201.157177 
L 95.474793 199.562997 
L 96.376982 198.142097 
L 96.919309 197.552943 
L 97.64917 196.478605 
L 98.029306 195.577546 
L 98.845332 194.57252 
L 99.098756 193.844742 
L 99.35218 193.844742 
L 102.038474 190.344476 
L 103.148471 189.062201 
L 104.58285 187.156116 
L 104.648741 187.017492 
L 105.626957 185.87384 
L 105.84997 185.492623 
L 107.041063 183.967755 
L 107.294487 183.413258 
L 107.710102 183.066697 
L 108.495717 181.819078 
L 109.712152 180.744739 
L 110.112562 180.259554 
L 111.430366 178.145532 
L 111.947351 177.348442 
L 113.006663 175.962198 
L 113.599676 175.095796 
L 113.609812 175.095796 
L 113.98488 174.610611 
L 114.223099 174.090769 
L 115.231726 172.947118 
L 115.672684 172.600557 
L 117.537884 170.763784 
L 119.539934 167.852673 
L 120.264726 167.124895 
L 120.355959 166.81299 
L 121.298696 166.154524 
L 123.209513 163.901878 
L 123.609923 163.347381 
L 124.08636 162.827539 
L 125.196357 161.025423 
L 125.267315 160.886798 
L 129.256209 156.000289 
L 129.763057 155.723041 
L 130.655109 154.614046 
L 131.501545 153.609019 
L 131.856339 153.470395 
L 140.391658 145.222245 
L 140.868095 144.425155 
L 142.707954 142.900287 
L 143.133706 142.623038 
L 143.245212 142.449757 
L 143.559458 142.345789 
L 143.746992 141.929916 
L 145.500686 140.855577 
L 145.68822 140.786265 
L 146.129177 140.47436 
L 146.970545 139.67727 
L 147.223969 139.538646 
L 147.436845 139.122773 
L 147.751091 138.914836 
L 148.014652 138.568275 
L 148.460678 138.187058 
L 148.850951 137.944465 
L 149.717661 136.904783 
L 150.128208 136.696846 
L 151.699436 134.548168 
L 152.809433 133.577798 
L 153.123679 133.439173 
L 153.579842 132.953988 
L 153.579842 132.919332 
L 153.691349 132.746052 
L 154.644223 132.156898 
L 156.925039 129.869596 
L 158.080652 129.03785 
L 158.166816 128.725945 
L 158.541884 128.552664 
L 158.825718 128.136791 
L 159.195717 127.928855 
L 159.403525 127.651606 
L 160.371605 127.027796 
L 161.496807 125.918802 
L 161.917491 125.676209 
L 165.490769 122.175944 
L 165.860768 121.448166 
L 166.585561 120.928324 
L 166.889669 120.512451 
L 167.371175 120.304515 
L 168.090899 119.888642 
L 168.42035 119.3688 
L 169.423909 118.710334 
L 169.712813 118.329117 
L 170.011853 118.190493 
L 170.630207 117.393403 
L 170.985001 117.185466 
L 171.349931 116.97753 
L 171.360068 116.97753 
L 172.328148 115.937847 
L 172.936366 115.72991 
L 173.02253 115.72991 
L 174.233896 114.863508 
L 174.598827 114.724884 
L 174.968826 114.239699 
L 178.638405 112.160333 
L 178.714432 112.056365 
L 179.971415 111.363243 
L 184.781402 108.452131 
L 185.176744 107.862978 
L 185.739345 107.585729 
L 186.033317 107.204512 
L 186.068796 107.204512 
L 186.580712 106.753983 
L 186.600986 106.753983 
L 186.712493 106.615358 
L 187.563997 106.33811 
L 188.101256 105.922236 
L 189.576184 104.882554 
L 189.794128 104.847898 
L 190.235086 104.397368 
L 190.346593 104.224088 
L 190.747003 104.189432 
L 191.253851 103.877527 
L 191.497138 103.704247 
L 191.502206 103.669591 
L 194.203706 101.90213 
L 195.040005 101.347632 
L 197.391779 100.169325 
L 197.766847 100.100013 
L 200.245333 98.505833 
L 200.245333 98.471177 
L 201.451631 97.639431 
L 201.801357 97.535462 
L 202.120671 97.258214 
L 202.308204 97.223557 
L 202.308204 97.188901 
L 202.977244 96.84234 
L 203.798337 96.183875 
L 204.558609 95.594721 
L 204.781622 95.317472 
L 205.182032 94.866943 
L 205.5571 94.797631 
L 205.866277 94.485726 
L 205.992989 94.173821 
L 206.641754 93.965885 
L 206.945863 93.792604 
L 207.128329 93.757948 
L 208.050792 93.134139 
L 208.405585 93.064826 
L 208.653941 92.891546 
L 209.140515 92.579641 
L 211.183112 91.401334 
L 213.038176 90.049746 
L 213.215572 90.049746 
L 213.747763 89.529905 
L 214.872965 88.628847 
L 215.354471 88.42091 
L 215.536936 88.351598 
L 215.95762 87.7971 
L 216.302276 87.589164 
L 216.829398 87.173291 
L 217.559259 87.00001 
L 218.106655 86.549481 
L 218.400627 86.445513 
L 218.415832 86.376201 
L 218.998708 86.133608 
L 219.622131 85.717735 
L 219.82487 85.509798 
L 220.392539 85.128581 
L 220.813223 85.093925 
L 221.102127 84.712708 
L 221.436646 84.643396 
L 222.136096 84.296835 
L 222.227329 84.227523 
L 222.62267 84.088899 
L 222.810204 83.98493 
L 223.499517 83.534401 
L 225.932388 82.356094 
L 226.368277 82.286782 
L 229.338406 81.177787 
L 229.966897 80.865882 
L 230.230458 80.761914 
L 230.407855 80.657945 
L 231.02621 80.207416 
L 232.369357 79.514294 
L 232.663328 79.444982 
L 233.296888 79.029109 
L 233.677024 78.890485 
L 235.233048 78.093395 
L 235.866608 77.989426 
L 237.787561 77.15768 
L 238.253861 77.053712 
L 238.466738 76.9844 
L 238.988791 76.949744 
L 239.830159 76.429902 
L 240.266048 76.325934 
L 241.523031 75.632812 
L 242.050153 75.598156 
L 242.354261 75.39022 
L 242.693849 75.286251 
L 243.631518 74.974346 
L 243.935627 74.905034 
L 243.935627 74.870378 
L 244.528639 74.593129 
L 244.949323 74.454505 
L 245.314253 74.107944 
L 245.881923 74.038632 
L 246.571236 73.622759 
L 247.154111 73.414822 
L 248.938216 72.791013 
L 250.266158 72.132547 
L 250.484103 72.063235 
L 250.833828 71.855298 
L 251.680264 71.75133 
L 251.79177 71.647362 
L 252.227659 71.612706 
L 252.815603 71.404769 
L 253.352862 71.196832 
L 253.748203 71.092864 
L 254.579434 70.884928 
L 254.787242 70.780959 
L 254.974775 70.711647 
L 255.162309 70.711647 
L 255.162309 70.676991 
L 255.750253 70.573023 
L 256.003677 70.503711 
L 256.419292 70.261118 
L 256.753812 70.053181 
L 257.123811 69.914557 
L 257.590111 69.810589 
L 258.137507 69.464028 
L 258.517643 69.36006 
L 258.918052 69.256091 
L 259.597229 69.048155 
L 259.718872 68.944186 
L 260.078734 68.73625 
L 260.438596 68.493657 
L 260.864349 68.424345 
L 261.690511 68.077784 
L 263.09448 67.419318 
L 263.428999 67.350006 
L 263.722971 67.246038 
L 264.214614 67.107414 
L 264.407216 66.968789 
L 264.609955 66.899477 
L 264.985022 66.69154 
L 265.942965 66.379636 
L 267.362139 65.825138 
L 268.036247 65.443921 
L 268.984053 65.235985 
L 269.546654 65.166672 
L 269.830489 64.993392 
L 270.114324 64.889424 
L 270.119392 64.854768 
L 270.540076 64.577519 
L 271.254732 64.334926 
L 271.59432 64.230958 
L 271.680484 64.057677 
L 273.723081 63.017995 
L 273.946094 63.017995 
L 274.295819 62.844714 
L 275.248694 62.740746 
L 275.532528 62.636778 
L 276.054582 62.532809 
L 277.965399 61.701063 
L 278.406356 61.597095 
L 279.09567 61.250534 
L 280.007996 61.146566 
L 281.878265 60.453444 
L 282.081004 60.280163 
L 284.007026 59.829634 
L 284.316203 59.621698 
L 285.076475 59.205825 
L 287.331949 58.651327 
L 287.615784 58.547359 
L 287.930029 58.443391 
L 289.024821 58.235454 
L 289.32893 58.131486 
L 290.550433 57.923549 
L 291.011665 57.715613 
L 291.645225 57.611644 
L 291.706047 57.542332 
L 292.370017 57.438364 
L 293.535768 57.126459 
L 293.96152 57.022491 
L 295.487132 56.641274 
L 296.080144 56.537306 
L 296.465349 56.433337 
L 297.088772 56.294713 
L 297.235758 56.225401 
L 297.52973 56.121432 
L 298.259591 55.948152 
L 298.507946 55.87884 
L 299.09589 55.774872 
L 299.587532 55.705559 
L 299.764929 55.601591 
L 300.216024 55.289686 
L 300.616434 55.151062 
L 300.915474 55.116406 
L 301.006707 55.012437 
L 302.375196 54.561908 
L 302.613415 54.319316 
L 303.16081 54.250003 
L 303.16081 54.215347 
L 303.216564 54.111379 
L 304.514094 53.799474 
L 304.858751 53.730162 
L 304.858751 53.695506 
L 305.299709 53.556882 
L 306.115734 53.452913 
L 308.568878 52.86376 
L 309.542026 52.759792 
L 310.520243 52.482543 
L 310.773667 52.482543 
L 311.118323 52.309262 
L 311.888732 52.205294 
L 312.06106 52.170638 
L 312.669278 52.06667 
L 314.002288 51.720109 
L 314.483794 51.685453 
L 315.811735 51.130955 
L 316.475706 51.026987 
L 316.921732 50.888363 
L 317.225841 50.784394 
L 317.225841 50.749738 
L 318.143236 50.507146 
L 321.610076 49.814024 
L 321.822952 49.744712 
L 323.014045 49.536775 
L 323.348564 49.398151 
L 324.042946 49.294182 
L 325.619243 48.947621 
L 326.516364 48.878309 
L 327.175266 48.774341 
L 328.320743 48.670373 
L 328.39677 48.635717 
L 334.549904 47.388097 
L 334.86415 47.318785 
L 335.071958 47.180161 
L 335.588942 47.145505 
L 336.040037 46.902912 
L 336.648255 46.8336 
L 337.058802 46.729632 
L 337.29702 46.660319 
L 337.585923 46.556351 
L 338.133319 46.452383 
L 338.908797 46.313758 
L 339.922492 46.244446 
L 341.042626 45.897885 
L 341.042626 45.863229 
L 341.128791 45.863229 
L 341.868789 45.759261 
L 341.868789 45.724605 
L 341.960021 45.724605 
L 342.659471 45.620637 
L 347.474527 44.580954 
L 347.859731 44.476986 
L 357.160391 42.466932 
L 361.620653 41.669842 
L 364.119414 41.080689 
L 364.844206 40.872752 
L 365.457492 40.768784 
L 366.060641 40.595503 
L 366.663791 40.491535 
L 367.008447 40.352911 
L 367.788993 40.248942 
L 367.910637 40.17963 
L 368.914195 40.110318 
L 369.086524 40.041006 
L 370.536109 39.937038 
L 372.928431 39.347884 
L 373.136239 39.243916 
L 373.648155 39.139947 
L 376.268559 38.550794 
L 376.268559 38.516138 
L 376.36486 38.516138 
L 376.425682 38.516138 
L 376.679106 38.308201 
L 377.302529 38.204233 
L 378.442937 37.926984 
L 379.309647 37.823016 
L 379.912796 37.753704 
L 380.926492 37.684392 
L 381.676627 37.407143 
L 385.021823 36.817989 
L 385.964561 36.714021 
L 386.99853 36.471428 
L 387.480036 36.36746 
L 388.275787 36.19418 
L 389.639208 36.090211 
L 389.639208 36.055555 
L 389.735509 36.055555 
L 391.610847 35.951587 
L 391.909887 35.882275 
L 393.303719 35.778306 
L 393.820704 35.674338 
L 394.469469 35.57037 
L 394.687414 35.466402 
L 395.772069 35.362433 
L 396.760422 35.154497 
L 397.693022 35.085185 
L 398.30124 34.94656 
L 400.455344 34.842592 
L 400.881096 34.77328 
L 402.710817 34.669312 
L 402.989583 34.565343 
L 404.084375 34.461375 
L 404.084375 34.461375 
" clip-path="url(#p17c5cacc16)" style="fill: none; stroke: #ff8c00; stroke-width: 2; stroke-linecap: round"/>
   </g>
   <g id="line2d_14">
    <path d="M 46.964375 287.901375 
L 404.084375 34.461375 
" clip-path="url(#p17c5cacc16)" style="fill: none; stroke-dasharray: 7.4,3.2; stroke-dashoffset: 0; stroke: #000080; stroke-width: 2"/>
   </g>
   <g id="patch_3">
    <path d="M 46.964375 287.901375 
L 46.964375 21.789375 
" style="fill: none; stroke: #ffffff; stroke-width: 1.25; stroke-linejoin: miter; stroke-linecap: square"/>
   </g>
   <g id="patch_4">
    <path d="M 404.084375 287.901375 
L 404.084375 21.789375 
" style="fill: none; stroke: #ffffff; stroke-width: 1.25; stroke-linejoin: miter; stroke-linecap: square"/>
   </g>
   <g id="patch_5">
    <path d="M 46.964375 287.901375 
L 404.084375 287.901375 
" style="fill: none; stroke: #ffffff; stroke-width: 1.25; stroke-linejoin: miter; stroke-linecap: square"/>
   </g>
   <g id="patch_6">
    <path d="M 46.964375 21.789375 
L 404.084375 21.789375 
" style="fill: none; stroke: #ffffff; stroke-width: 1.25; stroke-linejoin: miter; stroke-linecap: square"/>
   </g>
   <g id="text_15">
    <!-- ROC CURVE -->
    <g style="fill: #262626" transform="translate(189.625625 15.789375)scale(0.12 -0.12)">
     <defs>
      <path id="ArialMT-4f" d="M 309 2231 
Q 309 3372 921 4017 
Q 1534 4663 2503 4663 
Q 3138 4663 3647 4359 
Q 4156 4056 4423 3514 
Q 4691 2972 4691 2284 
Q 4691 1588 4409 1038 
Q 4128 488 3612 205 
Q 3097 -78 2500 -78 
Q 1853 -78 1343 234 
Q 834 547 571 1087 
Q 309 1628 309 2231 
z
M 934 2222 
Q 934 1394 1379 917 
Q 1825 441 2497 441 
Q 3181 441 3623 922 
Q 4066 1403 4066 2288 
Q 4066 2847 3877 3264 
Q 3688 3681 3323 3911 
Q 2959 4141 2506 4141 
Q 1863 4141 1398 3698 
Q 934 3256 934 2222 
z
" transform="scale(0.015625)"/>
      <path id="ArialMT-43" d="M 3763 1606 
L 4369 1453 
Q 4178 706 3683 314 
Q 3188 -78 2472 -78 
Q 1731 -78 1267 223 
Q 803 525 561 1097 
Q 319 1669 319 2325 
Q 319 3041 592 3573 
Q 866 4106 1370 4382 
Q 1875 4659 2481 4659 
Q 3169 4659 3637 4309 
Q 4106 3959 4291 3325 
L 3694 3184 
Q 3534 3684 3231 3912 
Q 2928 4141 2469 4141 
Q 1941 4141 1586 3887 
Q 1231 3634 1087 3207 
Q 944 2781 944 2328 
Q 944 1744 1114 1308 
Q 1284 872 1643 656 
Q 2003 441 2422 441 
Q 2931 441 3284 734 
Q 3638 1028 3763 1606 
z
" transform="scale(0.015625)"/>
      <path id="ArialMT-55" d="M 3500 4581 
L 4106 4581 
L 4106 1934 
Q 4106 1244 3950 837 
Q 3794 431 3386 176 
Q 2978 -78 2316 -78 
Q 1672 -78 1262 144 
Q 853 366 678 786 
Q 503 1206 503 1934 
L 503 4581 
L 1109 4581 
L 1109 1938 
Q 1109 1341 1220 1058 
Q 1331 775 1601 622 
Q 1872 469 2263 469 
Q 2931 469 3215 772 
Q 3500 1075 3500 1938 
L 3500 4581 
z
" transform="scale(0.015625)"/>
      <path id="ArialMT-56" d="M 1803 0 
L 28 4581 
L 684 4581 
L 1875 1253 
Q 2019 853 2116 503 
Q 2222 878 2363 1253 
L 3600 4581 
L 4219 4581 
L 2425 0 
L 1803 0 
z
" transform="scale(0.015625)"/>
      <path id="ArialMT-45" d="M 506 0 
L 506 4581 
L 3819 4581 
L 3819 4041 
L 1113 4041 
L 1113 2638 
L 3647 2638 
L 3647 2100 
L 1113 2100 
L 1113 541 
L 3925 541 
L 3925 0 
L 506 0 
z
" transform="scale(0.015625)"/>
     </defs>
     <use xlink:href="#ArialMT-52"/>
     <use xlink:href="#ArialMT-4f" x="72.216797"/>
     <use xlink:href="#ArialMT-43" x="150"/>
     <use xlink:href="#ArialMT-20" x="222.216797"/>
     <use xlink:href="#ArialMT-43" x="250"/>
     <use xlink:href="#ArialMT-55" x="322.216797"/>
     <use xlink:href="#ArialMT-52" x="394.433594"/>
     <use xlink:href="#ArialMT-56" x="464.900391"/>
     <use xlink:href="#ArialMT-45" x="531.599609"/>
    </g>
   </g>
   <g id="legend_1">
    <g id="patch_7">
     <path d="M 247.452969 282.401375 
L 396.384375 282.401375 
Q 398.584375 282.401375 398.584375 280.201375 
L 398.584375 249.911844 
Q 398.584375 247.711844 396.384375 247.711844 
L 247.452969 247.711844 
Q 245.252969 247.711844 245.252969 249.911844 
L 245.252969 280.201375 
Q 245.252969 282.401375 247.452969 282.401375 
z
" style="fill: #eaeaf2; opacity: 0.8; stroke: #cccccc; stroke-linejoin: miter"/>
    </g>
    <g id="line2d_15">
     <path d="M 249.652969 256.276375 
L 260.652969 256.276375 
L 271.652969 256.276375 
" style="fill: none; stroke: #ff8c00; stroke-width: 2; stroke-linecap: round"/>
    </g>
    <g id="text_16">
     <!-- ROC (area = 0.71) -->
     <g style="fill: #262626" transform="translate(280.452969 260.126375)scale(0.11 -0.11)">
      <defs>
       <path id="ArialMT-28" d="M 1497 -1347 
Q 1031 -759 709 28 
Q 388 816 388 1659 
Q 388 2403 628 3084 
Q 909 3875 1497 4659 
L 1900 4659 
Q 1522 4009 1400 3731 
Q 1209 3300 1100 2831 
Q 966 2247 966 1656 
Q 966 153 1900 -1347 
L 1497 -1347 
z
" transform="scale(0.015625)"/>
       <path id="ArialMT-3d" d="M 3381 2694 
L 356 2694 
L 356 3219 
L 3381 3219 
L 3381 2694 
z
M 3381 1303 
L 356 1303 
L 356 1828 
L 3381 1828 
L 3381 1303 
z
" transform="scale(0.015625)"/>
       <path id="ArialMT-37" d="M 303 3981 
L 303 4522 
L 3269 4522 
L 3269 4084 
Q 2831 3619 2401 2847 
Q 1972 2075 1738 1259 
Q 1569 684 1522 0 
L 944 0 
Q 953 541 1156 1306 
Q 1359 2072 1739 2783 
Q 2119 3494 2547 3981 
L 303 3981 
z
" transform="scale(0.015625)"/>
       <path id="ArialMT-29" d="M 791 -1347 
L 388 -1347 
Q 1322 153 1322 1656 
Q 1322 2244 1188 2822 
Q 1081 3291 891 3722 
Q 769 4003 388 4659 
L 791 4659 
Q 1378 3875 1659 3084 
Q 1900 2403 1900 1659 
Q 1900 816 1576 28 
Q 1253 -759 791 -1347 
z
" transform="scale(0.015625)"/>
      </defs>
      <use xlink:href="#ArialMT-52"/>
      <use xlink:href="#ArialMT-4f" x="72.216797"/>
      <use xlink:href="#ArialMT-43" x="150"/>
      <use xlink:href="#ArialMT-20" x="222.216797"/>
      <use xlink:href="#ArialMT-28" x="250"/>
      <use xlink:href="#ArialMT-61" x="283.300781"/>
      <use xlink:href="#ArialMT-72" x="338.916016"/>
      <use xlink:href="#ArialMT-65" x="372.216797"/>
      <use xlink:href="#ArialMT-61" x="427.832031"/>
      <use xlink:href="#ArialMT-20" x="483.447266"/>
      <use xlink:href="#ArialMT-3d" x="511.230469"/>
      <use xlink:href="#ArialMT-20" x="569.628906"/>
      <use xlink:href="#ArialMT-30" x="597.412109"/>
      <use xlink:href="#ArialMT-2e" x="653.027344"/>
      <use xlink:href="#ArialMT-37" x="680.810547"/>
      <use xlink:href="#ArialMT-31" x="736.425781"/>
      <use xlink:href="#ArialMT-29" x="792.041016"/>
     </g>
    </g>
    <g id="line2d_16">
     <path d="M 249.652969 271.965125 
L 260.652969 271.965125 
L 271.652969 271.965125 
" style="fill: none; stroke-dasharray: 7.4,3.2; stroke-dashoffset: 0; stroke: #000080; stroke-width: 2"/>
    </g>
    <g id="text_17">
     <!-- Ideal Random Baseline -->
     <g style="fill: #262626" transform="translate(280.452969 275.815125)scale(0.11 -0.11)">
      <defs>
       <path id="ArialMT-49" d="M 597 0 
L 597 4581 
L 1203 4581 
L 1203 0 
L 597 0 
z
" transform="scale(0.015625)"/>
       <path id="ArialMT-64" d="M 2575 0 
L 2575 419 
Q 2259 -75 1647 -75 
Q 1250 -75 917 144 
Q 584 363 401 755 
Q 219 1147 219 1656 
Q 219 2153 384 2558 
Q 550 2963 881 3178 
Q 1213 3394 1622 3394 
Q 1922 3394 2156 3267 
Q 2391 3141 2538 2938 
L 2538 4581 
L 3097 4581 
L 3097 0 
L 2575 0 
z
M 797 1656 
Q 797 1019 1065 703 
Q 1334 388 1700 388 
Q 2069 388 2326 689 
Q 2584 991 2584 1609 
Q 2584 2291 2321 2609 
Q 2059 2928 1675 2928 
Q 1300 2928 1048 2622 
Q 797 2316 797 1656 
z
" transform="scale(0.015625)"/>
       <path id="ArialMT-6e" d="M 422 0 
L 422 3319 
L 928 3319 
L 928 2847 
Q 1294 3394 1984 3394 
Q 2284 3394 2536 3286 
Q 2788 3178 2913 3003 
Q 3038 2828 3088 2588 
Q 3119 2431 3119 2041 
L 3119 0 
L 2556 0 
L 2556 2019 
Q 2556 2363 2490 2533 
Q 2425 2703 2258 2804 
Q 2091 2906 1866 2906 
Q 1506 2906 1245 2678 
Q 984 2450 984 1813 
L 984 0 
L 422 0 
z
" transform="scale(0.015625)"/>
       <path id="ArialMT-6d" d="M 422 0 
L 422 3319 
L 925 3319 
L 925 2853 
Q 1081 3097 1340 3245 
Q 1600 3394 1931 3394 
Q 2300 3394 2536 3241 
Q 2772 3088 2869 2813 
Q 3263 3394 3894 3394 
Q 4388 3394 4653 3120 
Q 4919 2847 4919 2278 
L 4919 0 
L 4359 0 
L 4359 2091 
Q 4359 2428 4304 2576 
Q 4250 2725 4106 2815 
Q 3963 2906 3769 2906 
Q 3419 2906 3187 2673 
Q 2956 2441 2956 1928 
L 2956 0 
L 2394 0 
L 2394 2156 
Q 2394 2531 2256 2718 
Q 2119 2906 1806 2906 
Q 1569 2906 1367 2781 
Q 1166 2656 1075 2415 
Q 984 2175 984 1722 
L 984 0 
L 422 0 
z
" transform="scale(0.015625)"/>
       <path id="ArialMT-42" d="M 469 0 
L 469 4581 
L 2188 4581 
Q 2713 4581 3030 4442 
Q 3347 4303 3526 4014 
Q 3706 3725 3706 3409 
Q 3706 3116 3547 2856 
Q 3388 2597 3066 2438 
Q 3481 2316 3704 2022 
Q 3928 1728 3928 1328 
Q 3928 1006 3792 729 
Q 3656 453 3456 303 
Q 3256 153 2954 76 
Q 2653 0 2216 0 
L 469 0 
z
M 1075 2656 
L 2066 2656 
Q 2469 2656 2644 2709 
Q 2875 2778 2992 2937 
Q 3109 3097 3109 3338 
Q 3109 3566 3000 3739 
Q 2891 3913 2687 3977 
Q 2484 4041 1991 4041 
L 1075 4041 
L 1075 2656 
z
M 1075 541 
L 2216 541 
Q 2509 541 2628 563 
Q 2838 600 2978 687 
Q 3119 775 3209 942 
Q 3300 1109 3300 1328 
Q 3300 1584 3169 1773 
Q 3038 1963 2805 2039 
Q 2572 2116 2134 2116 
L 1075 2116 
L 1075 541 
z
" transform="scale(0.015625)"/>
      </defs>
      <use xlink:href="#ArialMT-49"/>
      <use xlink:href="#ArialMT-64" x="27.783203"/>
      <use xlink:href="#ArialMT-65" x="83.398438"/>
      <use xlink:href="#ArialMT-61" x="139.013672"/>
      <use xlink:href="#ArialMT-6c" x="194.628906"/>
      <use xlink:href="#ArialMT-20" x="216.845703"/>
      <use xlink:href="#ArialMT-52" x="244.628906"/>
      <use xlink:href="#ArialMT-61" x="316.845703"/>
      <use xlink:href="#ArialMT-6e" x="372.460938"/>
      <use xlink:href="#ArialMT-64" x="428.076172"/>
      <use xlink:href="#ArialMT-6f" x="483.691406"/>
      <use xlink:href="#ArialMT-6d" x="539.306641"/>
      <use xlink:href="#ArialMT-20" x="622.607422"/>
      <use xlink:href="#ArialMT-42" x="650.390625"/>
      <use xlink:href="#ArialMT-61" x="717.089844"/>
      <use xlink:href="#ArialMT-73" x="772.705078"/>
      <use xlink:href="#ArialMT-65" x="822.705078"/>
      <use xlink:href="#ArialMT-6c" x="878.320312"/>
      <use xlink:href="#ArialMT-69" x="900.537109"/>
      <use xlink:href="#ArialMT-6e" x="922.753906"/>
      <use xlink:href="#ArialMT-65" x="978.369141"/>
     </g>
    </g>
   </g>
  </g>
 </g>
 <defs>
  <clipPath id="p17c5cacc16">
   <rect x="46.964375" y="21.789375" width="357.12" height="266.112"/>
  </clipPath>
 </defs>
</svg>
