<?xml version="1.0" encoding="utf-8" standalone="no"?>
<!DOCTYPE svg PUBLIC "-//W3C//DTD SVG 1.1//EN"
  "http://www.w3.org/Graphics/SVG/1.1/DTD/svg11.dtd">
<svg xmlns:xlink="http://www.w3.org/1999/xlink" width="772.046081pt" height="346.241pt" viewBox="0 0 772.046081 346.241" xmlns="http://www.w3.org/2000/svg" version="1.1">
 <metadata>
  <rdf:RDF xmlns:dc="http://purl.org/dc/elements/1.1/" xmlns:cc="http://creativecommons.org/ns#" xmlns:rdf="http://www.w3.org/1999/02/22-rdf-syntax-ns#">
   <cc:Work>
    <dc:type rdf:resource="http://purl.org/dc/dcmitype/StillImage"/>
    <dc:date>2022-11-23T03:09:30.034579</dc:date>
    <dc:format>image/svg+xml</dc:format>
    <dc:creator>
     <cc:Agent>
      <dc:title>Matplotlib v3.5.2, https://matplotlib.org/</dc:title>
     </cc:Agent>
    </dc:creator>
   </cc:Work>
  </rdf:RDF>
 </metadata>
 <defs>
  <style type="text/css">*{stroke-linejoin: round; stroke-linecap: butt}</style>
 </defs>
 <g id="figure_1">
  <g id="patch_1">
   <path d="M 0 346.241 
L 772.046081 346.241 
L 772.046081 0 
L 0 0 
z
" style="fill: #ffffff"/>
  </g>
  <g id="axes_1">
   <g id="patch_2">
    <path d="M 241.082031 304.874375 
L 687.482031 304.874375 
L 687.482031 27.674375 
L 241.082031 27.674375 
z
" style="fill: #eaeaf2"/>
   </g>
   <g id="line2d_1">
    <path d="M 516.822004 106.980257 
L 516.822004 40.274375 
" clip-path="url(#pa2e69ed910)" style="fill: none; stroke-dasharray: 1.85,0.8; stroke-dashoffset: 0; stroke: #bbbbbb; stroke-width: 0.5"/>
   </g>
   <g id="line2d_2">
    <path d="M 457.617155 144.039081 
L 457.617155 77.333199 
" clip-path="url(#pa2e69ed910)" style="fill: none; stroke-dasharray: 1.85,0.8; stroke-dashoffset: 0; stroke: #bbbbbb; stroke-width: 0.5"/>
   </g>
   <g id="line2d_3">
    <path d="M 508.004011 181.097904 
L 508.004011 114.392022 
" clip-path="url(#pa2e69ed910)" style="fill: none; stroke-dasharray: 1.85,0.8; stroke-dashoffset: 0; stroke: #bbbbbb; stroke-width: 0.5"/>
   </g>
   <g id="line2d_4">
    <path d="M 547.284573 218.156728 
L 547.284573 151.450846 
" clip-path="url(#pa2e69ed910)" style="fill: none; stroke-dasharray: 1.85,0.8; stroke-dashoffset: 0; stroke: #bbbbbb; stroke-width: 0.5"/>
   </g>
   <g id="line2d_5">
    <path d="M 569.954642 255.215551 
L 569.954642 188.509669 
" clip-path="url(#pa2e69ed910)" style="fill: none; stroke-dasharray: 1.85,0.8; stroke-dashoffset: 0; stroke: #bbbbbb; stroke-width: 0.5"/>
   </g>
   <g id="line2d_6">
    <path d="M 591.525409 292.274375 
L 591.525409 225.568493 
" clip-path="url(#pa2e69ed910)" style="fill: none; stroke-dasharray: 1.85,0.8; stroke-dashoffset: 0; stroke: #bbbbbb; stroke-width: 0.5"/>
   </g>
   <g id="line2d_7">
    <path d="M 241.082031 277.450846 
L 687.482031 277.450846 
" clip-path="url(#pa2e69ed910)" style="fill: none; stroke-dasharray: 0.5,2.5; stroke-dashoffset: 0; stroke: #cccccc; stroke-width: 0.5"/>
   </g>
   <g id="line2d_8">
    <path d="M 241.082031 240.392022 
L 687.482031 240.392022 
" clip-path="url(#pa2e69ed910)" style="fill: none; stroke-dasharray: 0.5,2.5; stroke-dashoffset: 0; stroke: #cccccc; stroke-width: 0.5"/>
   </g>
   <g id="line2d_9">
    <path d="M 241.082031 203.333199 
L 687.482031 203.333199 
" clip-path="url(#pa2e69ed910)" style="fill: none; stroke-dasharray: 0.5,2.5; stroke-dashoffset: 0; stroke: #cccccc; stroke-width: 0.5"/>
   </g>
   <g id="line2d_10">
    <path d="M 241.082031 166.274375 
L 687.482031 166.274375 
" clip-path="url(#pa2e69ed910)" style="fill: none; stroke-dasharray: 0.5,2.5; stroke-dashoffset: 0; stroke: #cccccc; stroke-width: 0.5"/>
   </g>
   <g id="line2d_11">
    <path d="M 241.082031 129.215551 
L 687.482031 129.215551 
" clip-path="url(#pa2e69ed910)" style="fill: none; stroke-dasharray: 0.5,2.5; stroke-dashoffset: 0; stroke: #cccccc; stroke-width: 0.5"/>
   </g>
   <g id="line2d_12">
    <path d="M 241.082031 92.156728 
L 687.482031 92.156728 
" clip-path="url(#pa2e69ed910)" style="fill: none; stroke-dasharray: 0.5,2.5; stroke-dashoffset: 0; stroke: #cccccc; stroke-width: 0.5"/>
   </g>
   <g id="line2d_13">
    <path d="M 241.082031 55.097904 
L 687.482031 55.097904 
" clip-path="url(#pa2e69ed910)" style="fill: none; stroke-dasharray: 0.5,2.5; stroke-dashoffset: 0; stroke: #cccccc; stroke-width: 0.5"/>
   </g>
   <g id="line2d_14">
    <path d="M 683.686078 304.874375 
L 683.686078 265.274375 
" clip-path="url(#pa2e69ed910)" style="fill: none; stroke-dasharray: 1.85,0.8; stroke-dashoffset: 0; stroke: #bbbbbb; stroke-width: 0.5"/>
   </g>
   <g id="line2d_15">
    <path d="M 304.094257 304.874375 
L 304.094257 27.674375 
" clip-path="url(#pa2e69ed910)" style="fill: none; stroke-dasharray: 1.85,0.8; stroke-dashoffset: 0; stroke: #bbbbbb; stroke-width: 0.5"/>
   </g>
   <g id="matplotlib.axis_1">
    <g id="xtick_1">
     <g id="line2d_16">
      <path d="M 287.713599 304.874375 
L 287.713599 27.674375 
" clip-path="url(#pa2e69ed910)" style="fill: none; stroke: #ffffff; stroke-linecap: round"/>
     </g>
     <g id="line2d_17">
      <defs>
       <path id="mf0b061c235" d="M 0 0 
L 0 6 
" style="stroke: #262626; stroke-width: 1.25"/>
      </defs>
      <g>
       <use xlink:href="#mf0b061c235" x="287.713599" y="304.874375" style="fill: #262626; stroke: #262626; stroke-width: 1.25"/>
      </g>
     </g>
     <g id="text_1">
      <!-- −3.8 -->
      <g style="fill: #262626" transform="translate(274.882193 323.679531)scale(0.13 -0.13)">
       <defs>
        <path id="ArialMT-2212" d="M 3381 1997 
L 356 1997 
L 356 2522 
L 3381 2522 
L 3381 1997 
z
" transform="scale(0.015625)"/>
        <path id="ArialMT-33" d="M 269 1209 
L 831 1284 
Q 928 806 1161 595 
Q 1394 384 1728 384 
Q 2125 384 2398 659 
Q 2672 934 2672 1341 
Q 2672 1728 2419 1979 
Q 2166 2231 1775 2231 
Q 1616 2231 1378 2169 
L 1441 2663 
Q 1497 2656 1531 2656 
Q 1891 2656 2178 2843 
Q 2466 3031 2466 3422 
Q 2466 3731 2256 3934 
Q 2047 4138 1716 4138 
Q 1388 4138 1169 3931 
Q 950 3725 888 3313 
L 325 3413 
Q 428 3978 793 4289 
Q 1159 4600 1703 4600 
Q 2078 4600 2393 4439 
Q 2709 4278 2876 4000 
Q 3044 3722 3044 3409 
Q 3044 3113 2884 2869 
Q 2725 2625 2413 2481 
Q 2819 2388 3044 2092 
Q 3269 1797 3269 1353 
Q 3269 753 2831 336 
Q 2394 -81 1725 -81 
Q 1122 -81 723 278 
Q 325 638 269 1209 
z
" transform="scale(0.015625)"/>
        <path id="ArialMT-2e" d="M 581 0 
L 581 641 
L 1222 641 
L 1222 0 
L 581 0 
z
" transform="scale(0.015625)"/>
        <path id="ArialMT-38" d="M 1131 2484 
Q 781 2613 612 2850 
Q 444 3088 444 3419 
Q 444 3919 803 4259 
Q 1163 4600 1759 4600 
Q 2359 4600 2725 4251 
Q 3091 3903 3091 3403 
Q 3091 3084 2923 2848 
Q 2756 2613 2416 2484 
Q 2838 2347 3058 2040 
Q 3278 1734 3278 1309 
Q 3278 722 2862 322 
Q 2447 -78 1769 -78 
Q 1091 -78 675 323 
Q 259 725 259 1325 
Q 259 1772 486 2073 
Q 713 2375 1131 2484 
z
M 1019 3438 
Q 1019 3113 1228 2906 
Q 1438 2700 1772 2700 
Q 2097 2700 2305 2904 
Q 2513 3109 2513 3406 
Q 2513 3716 2298 3927 
Q 2084 4138 1766 4138 
Q 1444 4138 1231 3931 
Q 1019 3725 1019 3438 
z
M 838 1322 
Q 838 1081 952 856 
Q 1066 631 1291 507 
Q 1516 384 1775 384 
Q 2178 384 2440 643 
Q 2703 903 2703 1303 
Q 2703 1709 2433 1975 
Q 2163 2241 1756 2241 
Q 1359 2241 1098 1978 
Q 838 1716 838 1322 
z
" transform="scale(0.015625)"/>
       </defs>
       <use xlink:href="#ArialMT-2212"/>
       <use xlink:href="#ArialMT-33" x="58.398438"/>
       <use xlink:href="#ArialMT-2e" x="114.013672"/>
       <use xlink:href="#ArialMT-38" x="141.796875"/>
      </g>
     </g>
    </g>
    <g id="xtick_2">
     <g id="line2d_18">
      <path d="M 349.691036 304.874375 
L 349.691036 27.674375 
" clip-path="url(#pa2e69ed910)" style="fill: none; stroke: #ffffff; stroke-linecap: round"/>
     </g>
     <g id="line2d_19">
      <g>
       <use xlink:href="#mf0b061c235" x="349.691036" y="304.874375" style="fill: #262626; stroke: #262626; stroke-width: 1.25"/>
      </g>
     </g>
     <g id="text_2">
      <!-- −3.6 -->
      <g style="fill: #262626" transform="translate(336.85963 323.679531)scale(0.13 -0.13)">
       <defs>
        <path id="ArialMT-36" d="M 3184 3459 
L 2625 3416 
Q 2550 3747 2413 3897 
Q 2184 4138 1850 4138 
Q 1581 4138 1378 3988 
Q 1113 3794 959 3422 
Q 806 3050 800 2363 
Q 1003 2672 1297 2822 
Q 1591 2972 1913 2972 
Q 2475 2972 2870 2558 
Q 3266 2144 3266 1488 
Q 3266 1056 3080 686 
Q 2894 316 2569 119 
Q 2244 -78 1831 -78 
Q 1128 -78 684 439 
Q 241 956 241 2144 
Q 241 3472 731 4075 
Q 1159 4600 1884 4600 
Q 2425 4600 2770 4297 
Q 3116 3994 3184 3459 
z
M 888 1484 
Q 888 1194 1011 928 
Q 1134 663 1356 523 
Q 1578 384 1822 384 
Q 2178 384 2434 671 
Q 2691 959 2691 1453 
Q 2691 1928 2437 2201 
Q 2184 2475 1800 2475 
Q 1419 2475 1153 2201 
Q 888 1928 888 1484 
z
" transform="scale(0.015625)"/>
       </defs>
       <use xlink:href="#ArialMT-2212"/>
       <use xlink:href="#ArialMT-33" x="58.398438"/>
       <use xlink:href="#ArialMT-2e" x="114.013672"/>
       <use xlink:href="#ArialMT-36" x="141.796875"/>
      </g>
     </g>
    </g>
    <g id="xtick_3">
     <g id="line2d_20">
      <path d="M 411.668472 304.874375 
L 411.668472 27.674375 
" clip-path="url(#pa2e69ed910)" style="fill: none; stroke: #ffffff; stroke-linecap: round"/>
     </g>
     <g id="line2d_21">
      <g>
       <use xlink:href="#mf0b061c235" x="411.668472" y="304.874375" style="fill: #262626; stroke: #262626; stroke-width: 1.25"/>
      </g>
     </g>
     <g id="text_3">
      <!-- −3.4 -->
      <g style="fill: #262626" transform="translate(398.837066 323.679531)scale(0.13 -0.13)">
       <defs>
        <path id="ArialMT-34" d="M 2069 0 
L 2069 1097 
L 81 1097 
L 81 1613 
L 2172 4581 
L 2631 4581 
L 2631 1613 
L 3250 1613 
L 3250 1097 
L 2631 1097 
L 2631 0 
L 2069 0 
z
M 2069 1613 
L 2069 3678 
L 634 1613 
L 2069 1613 
z
" transform="scale(0.015625)"/>
       </defs>
       <use xlink:href="#ArialMT-2212"/>
       <use xlink:href="#ArialMT-33" x="58.398438"/>
       <use xlink:href="#ArialMT-2e" x="114.013672"/>
       <use xlink:href="#ArialMT-34" x="141.796875"/>
      </g>
     </g>
    </g>
    <g id="xtick_4">
     <g id="line2d_22">
      <path d="M 473.645909 304.874375 
L 473.645909 27.674375 
" clip-path="url(#pa2e69ed910)" style="fill: none; stroke: #ffffff; stroke-linecap: round"/>
     </g>
     <g id="line2d_23">
      <g>
       <use xlink:href="#mf0b061c235" x="473.645909" y="304.874375" style="fill: #262626; stroke: #262626; stroke-width: 1.25"/>
      </g>
     </g>
     <g id="text_4">
      <!-- −3.2 -->
      <g style="fill: #262626" transform="translate(460.814502 323.679531)scale(0.13 -0.13)">
       <defs>
        <path id="ArialMT-32" d="M 3222 541 
L 3222 0 
L 194 0 
Q 188 203 259 391 
Q 375 700 629 1000 
Q 884 1300 1366 1694 
Q 2113 2306 2375 2664 
Q 2638 3022 2638 3341 
Q 2638 3675 2398 3904 
Q 2159 4134 1775 4134 
Q 1369 4134 1125 3890 
Q 881 3647 878 3216 
L 300 3275 
Q 359 3922 746 4261 
Q 1134 4600 1788 4600 
Q 2447 4600 2831 4234 
Q 3216 3869 3216 3328 
Q 3216 3053 3103 2787 
Q 2991 2522 2730 2228 
Q 2469 1934 1863 1422 
Q 1356 997 1212 845 
Q 1069 694 975 541 
L 3222 541 
z
" transform="scale(0.015625)"/>
       </defs>
       <use xlink:href="#ArialMT-2212"/>
       <use xlink:href="#ArialMT-33" x="58.398438"/>
       <use xlink:href="#ArialMT-2e" x="114.013672"/>
       <use xlink:href="#ArialMT-32" x="141.796875"/>
      </g>
     </g>
    </g>
    <g id="xtick_5">
     <g id="line2d_24">
      <path d="M 535.623345 304.874375 
L 535.623345 27.674375 
" clip-path="url(#pa2e69ed910)" style="fill: none; stroke: #ffffff; stroke-linecap: round"/>
     </g>
     <g id="line2d_25">
      <g>
       <use xlink:href="#mf0b061c235" x="535.623345" y="304.874375" style="fill: #262626; stroke: #262626; stroke-width: 1.25"/>
      </g>
     </g>
     <g id="text_5">
      <!-- −3.0 -->
      <g style="fill: #262626" transform="translate(522.791939 323.679531)scale(0.13 -0.13)">
       <defs>
        <path id="ArialMT-30" d="M 266 2259 
Q 266 3072 433 3567 
Q 600 4063 929 4331 
Q 1259 4600 1759 4600 
Q 2128 4600 2406 4451 
Q 2684 4303 2865 4023 
Q 3047 3744 3150 3342 
Q 3253 2941 3253 2259 
Q 3253 1453 3087 958 
Q 2922 463 2592 192 
Q 2263 -78 1759 -78 
Q 1097 -78 719 397 
Q 266 969 266 2259 
z
M 844 2259 
Q 844 1131 1108 757 
Q 1372 384 1759 384 
Q 2147 384 2411 759 
Q 2675 1134 2675 2259 
Q 2675 3391 2411 3762 
Q 2147 4134 1753 4134 
Q 1366 4134 1134 3806 
Q 844 3388 844 2259 
z
" transform="scale(0.015625)"/>
       </defs>
       <use xlink:href="#ArialMT-2212"/>
       <use xlink:href="#ArialMT-33" x="58.398438"/>
       <use xlink:href="#ArialMT-2e" x="114.013672"/>
       <use xlink:href="#ArialMT-30" x="141.796875"/>
      </g>
     </g>
    </g>
    <g id="xtick_6">
     <g id="line2d_26">
      <path d="M 597.600782 304.874375 
L 597.600782 27.674375 
" clip-path="url(#pa2e69ed910)" style="fill: none; stroke: #ffffff; stroke-linecap: round"/>
     </g>
     <g id="line2d_27">
      <g>
       <use xlink:href="#mf0b061c235" x="597.600782" y="304.874375" style="fill: #262626; stroke: #262626; stroke-width: 1.25"/>
      </g>
     </g>
     <g id="text_6">
      <!-- −2.8 -->
      <g style="fill: #262626" transform="translate(584.769375 323.679531)scale(0.13 -0.13)">
       <use xlink:href="#ArialMT-2212"/>
       <use xlink:href="#ArialMT-32" x="58.398438"/>
       <use xlink:href="#ArialMT-2e" x="114.013672"/>
       <use xlink:href="#ArialMT-38" x="141.796875"/>
      </g>
     </g>
    </g>
    <g id="xtick_7">
     <g id="line2d_28">
      <path d="M 659.578218 304.874375 
L 659.578218 27.674375 
" clip-path="url(#pa2e69ed910)" style="fill: none; stroke: #ffffff; stroke-linecap: round"/>
     </g>
     <g id="line2d_29">
      <g>
       <use xlink:href="#mf0b061c235" x="659.578218" y="304.874375" style="fill: #262626; stroke: #262626; stroke-width: 1.25"/>
      </g>
     </g>
     <g id="text_7">
      <!-- −2.6 -->
      <g style="fill: #262626" transform="translate(646.746812 323.679531)scale(0.13 -0.13)">
       <use xlink:href="#ArialMT-2212"/>
       <use xlink:href="#ArialMT-32" x="58.398438"/>
       <use xlink:href="#ArialMT-2e" x="114.013672"/>
       <use xlink:href="#ArialMT-36" x="141.796875"/>
      </g>
     </g>
    </g>
   </g>
   <g id="matplotlib.axis_2">
    <g id="ytick_1">
     <g id="line2d_30">
      <path d="M 241.082031 277.450846 
L 687.482031 277.450846 
" clip-path="url(#pa2e69ed910)" style="fill: none; stroke: #ffffff; stroke-linecap: round"/>
     </g>
     <g id="text_8">
      <!-- 39 other features -->
      <g style="fill: #999999" transform="translate(133.304062 282.103424)scale(0.13 -0.13)">
       <defs>
        <path id="ArialMT-39" d="M 350 1059 
L 891 1109 
Q 959 728 1153 556 
Q 1347 384 1650 384 
Q 1909 384 2104 503 
Q 2300 622 2425 820 
Q 2550 1019 2634 1356 
Q 2719 1694 2719 2044 
Q 2719 2081 2716 2156 
Q 2547 1888 2255 1720 
Q 1963 1553 1622 1553 
Q 1053 1553 659 1965 
Q 266 2378 266 3053 
Q 266 3750 677 4175 
Q 1088 4600 1706 4600 
Q 2153 4600 2523 4359 
Q 2894 4119 3086 3673 
Q 3278 3228 3278 2384 
Q 3278 1506 3087 986 
Q 2897 466 2520 194 
Q 2144 -78 1638 -78 
Q 1100 -78 759 220 
Q 419 519 350 1059 
z
M 2653 3081 
Q 2653 3566 2395 3850 
Q 2138 4134 1775 4134 
Q 1400 4134 1122 3828 
Q 844 3522 844 3034 
Q 844 2597 1108 2323 
Q 1372 2050 1759 2050 
Q 2150 2050 2401 2323 
Q 2653 2597 2653 3081 
z
" transform="scale(0.015625)"/>
        <path id="ArialMT-20" transform="scale(0.015625)"/>
        <path id="ArialMT-6f" d="M 213 1659 
Q 213 2581 725 3025 
Q 1153 3394 1769 3394 
Q 2453 3394 2887 2945 
Q 3322 2497 3322 1706 
Q 3322 1066 3130 698 
Q 2938 331 2570 128 
Q 2203 -75 1769 -75 
Q 1072 -75 642 372 
Q 213 819 213 1659 
z
M 791 1659 
Q 791 1022 1069 705 
Q 1347 388 1769 388 
Q 2188 388 2466 706 
Q 2744 1025 2744 1678 
Q 2744 2294 2464 2611 
Q 2184 2928 1769 2928 
Q 1347 2928 1069 2612 
Q 791 2297 791 1659 
z
" transform="scale(0.015625)"/>
        <path id="ArialMT-74" d="M 1650 503 
L 1731 6 
Q 1494 -44 1306 -44 
Q 1000 -44 831 53 
Q 663 150 594 308 
Q 525 466 525 972 
L 525 2881 
L 113 2881 
L 113 3319 
L 525 3319 
L 525 4141 
L 1084 4478 
L 1084 3319 
L 1650 3319 
L 1650 2881 
L 1084 2881 
L 1084 941 
Q 1084 700 1114 631 
Q 1144 563 1211 522 
Q 1278 481 1403 481 
Q 1497 481 1650 503 
z
" transform="scale(0.015625)"/>
        <path id="ArialMT-68" d="M 422 0 
L 422 4581 
L 984 4581 
L 984 2938 
Q 1378 3394 1978 3394 
Q 2347 3394 2619 3248 
Q 2891 3103 3008 2847 
Q 3125 2591 3125 2103 
L 3125 0 
L 2563 0 
L 2563 2103 
Q 2563 2525 2380 2717 
Q 2197 2909 1863 2909 
Q 1613 2909 1392 2779 
Q 1172 2650 1078 2428 
Q 984 2206 984 1816 
L 984 0 
L 422 0 
z
" transform="scale(0.015625)"/>
        <path id="ArialMT-65" d="M 2694 1069 
L 3275 997 
Q 3138 488 2766 206 
Q 2394 -75 1816 -75 
Q 1088 -75 661 373 
Q 234 822 234 1631 
Q 234 2469 665 2931 
Q 1097 3394 1784 3394 
Q 2450 3394 2872 2941 
Q 3294 2488 3294 1666 
Q 3294 1616 3291 1516 
L 816 1516 
Q 847 969 1125 678 
Q 1403 388 1819 388 
Q 2128 388 2347 550 
Q 2566 713 2694 1069 
z
M 847 1978 
L 2700 1978 
Q 2663 2397 2488 2606 
Q 2219 2931 1791 2931 
Q 1403 2931 1139 2672 
Q 875 2413 847 1978 
z
" transform="scale(0.015625)"/>
        <path id="ArialMT-72" d="M 416 0 
L 416 3319 
L 922 3319 
L 922 2816 
Q 1116 3169 1280 3281 
Q 1444 3394 1641 3394 
Q 1925 3394 2219 3213 
L 2025 2691 
Q 1819 2813 1613 2813 
Q 1428 2813 1281 2702 
Q 1134 2591 1072 2394 
Q 978 2094 978 1738 
L 978 0 
L 416 0 
z
" transform="scale(0.015625)"/>
        <path id="ArialMT-66" d="M 556 0 
L 556 2881 
L 59 2881 
L 59 3319 
L 556 3319 
L 556 3672 
Q 556 4006 616 4169 
Q 697 4388 901 4523 
Q 1106 4659 1475 4659 
Q 1713 4659 2000 4603 
L 1916 4113 
Q 1741 4144 1584 4144 
Q 1328 4144 1222 4034 
Q 1116 3925 1116 3625 
L 1116 3319 
L 1763 3319 
L 1763 2881 
L 1116 2881 
L 1116 0 
L 556 0 
z
" transform="scale(0.015625)"/>
        <path id="ArialMT-61" d="M 2588 409 
Q 2275 144 1986 34 
Q 1697 -75 1366 -75 
Q 819 -75 525 192 
Q 231 459 231 875 
Q 231 1119 342 1320 
Q 453 1522 633 1644 
Q 813 1766 1038 1828 
Q 1203 1872 1538 1913 
Q 2219 1994 2541 2106 
Q 2544 2222 2544 2253 
Q 2544 2597 2384 2738 
Q 2169 2928 1744 2928 
Q 1347 2928 1158 2789 
Q 969 2650 878 2297 
L 328 2372 
Q 403 2725 575 2942 
Q 747 3159 1072 3276 
Q 1397 3394 1825 3394 
Q 2250 3394 2515 3294 
Q 2781 3194 2906 3042 
Q 3031 2891 3081 2659 
Q 3109 2516 3109 2141 
L 3109 1391 
Q 3109 606 3145 398 
Q 3181 191 3288 0 
L 2700 0 
Q 2613 175 2588 409 
z
M 2541 1666 
Q 2234 1541 1622 1453 
Q 1275 1403 1131 1340 
Q 988 1278 909 1158 
Q 831 1038 831 891 
Q 831 666 1001 516 
Q 1172 366 1500 366 
Q 1825 366 2078 508 
Q 2331 650 2450 897 
Q 2541 1088 2541 1459 
L 2541 1666 
z
" transform="scale(0.015625)"/>
        <path id="ArialMT-75" d="M 2597 0 
L 2597 488 
Q 2209 -75 1544 -75 
Q 1250 -75 995 37 
Q 741 150 617 320 
Q 494 491 444 738 
Q 409 903 409 1263 
L 409 3319 
L 972 3319 
L 972 1478 
Q 972 1038 1006 884 
Q 1059 663 1231 536 
Q 1403 409 1656 409 
Q 1909 409 2131 539 
Q 2353 669 2445 892 
Q 2538 1116 2538 1541 
L 2538 3319 
L 3100 3319 
L 3100 0 
L 2597 0 
z
" transform="scale(0.015625)"/>
        <path id="ArialMT-73" d="M 197 991 
L 753 1078 
Q 800 744 1014 566 
Q 1228 388 1613 388 
Q 2000 388 2187 545 
Q 2375 703 2375 916 
Q 2375 1106 2209 1216 
Q 2094 1291 1634 1406 
Q 1016 1563 777 1677 
Q 538 1791 414 1992 
Q 291 2194 291 2438 
Q 291 2659 392 2848 
Q 494 3038 669 3163 
Q 800 3259 1026 3326 
Q 1253 3394 1513 3394 
Q 1903 3394 2198 3281 
Q 2494 3169 2634 2976 
Q 2775 2784 2828 2463 
L 2278 2388 
Q 2241 2644 2061 2787 
Q 1881 2931 1553 2931 
Q 1166 2931 1000 2803 
Q 834 2675 834 2503 
Q 834 2394 903 2306 
Q 972 2216 1119 2156 
Q 1203 2125 1616 2013 
Q 2213 1853 2448 1751 
Q 2684 1650 2818 1456 
Q 2953 1263 2953 975 
Q 2953 694 2789 445 
Q 2625 197 2315 61 
Q 2006 -75 1616 -75 
Q 969 -75 630 194 
Q 291 463 197 991 
z
" transform="scale(0.015625)"/>
       </defs>
       <use xlink:href="#ArialMT-33"/>
       <use xlink:href="#ArialMT-39" x="55.615234"/>
       <use xlink:href="#ArialMT-20" x="111.230469"/>
       <use xlink:href="#ArialMT-6f" x="139.013672"/>
       <use xlink:href="#ArialMT-74" x="194.628906"/>
       <use xlink:href="#ArialMT-68" x="222.412109"/>
       <use xlink:href="#ArialMT-65" x="278.027344"/>
       <use xlink:href="#ArialMT-72" x="333.642578"/>
       <use xlink:href="#ArialMT-20" x="366.943359"/>
       <use xlink:href="#ArialMT-66" x="394.726562"/>
       <use xlink:href="#ArialMT-65" x="422.509766"/>
       <use xlink:href="#ArialMT-61" x="478.125"/>
       <use xlink:href="#ArialMT-74" x="533.740234"/>
       <use xlink:href="#ArialMT-75" x="561.523438"/>
       <use xlink:href="#ArialMT-72" x="617.138672"/>
       <use xlink:href="#ArialMT-65" x="650.439453"/>
       <use xlink:href="#ArialMT-73" x="706.054688"/>
      </g>
     </g>
    </g>
    <g id="ytick_2">
     <g id="line2d_31">
      <path d="M 241.082031 240.392022 
L 687.482031 240.392022 
" clip-path="url(#pa2e69ed910)" style="fill: none; stroke: #ffffff; stroke-linecap: round"/>
     </g>
     <g id="text_9">
      <!-- 27 = y -->
      <g style="fill: #999999" transform="translate(195.807656 245.063897)scale(0.13 -0.13)">
       <defs>
        <path id="ArialMT-37" d="M 303 3981 
L 303 4522 
L 3269 4522 
L 3269 4084 
Q 2831 3619 2401 2847 
Q 1972 2075 1738 1259 
Q 1569 684 1522 0 
L 944 0 
Q 953 541 1156 1306 
Q 1359 2072 1739 2783 
Q 2119 3494 2547 3981 
L 303 3981 
z
" transform="scale(0.015625)"/>
        <path id="ArialMT-3d" d="M 3381 2694 
L 356 2694 
L 356 3219 
L 3381 3219 
L 3381 2694 
z
M 3381 1303 
L 356 1303 
L 356 1828 
L 3381 1828 
L 3381 1303 
z
" transform="scale(0.015625)"/>
        <path id="ArialMT-79" d="M 397 -1278 
L 334 -750 
Q 519 -800 656 -800 
Q 844 -800 956 -737 
Q 1069 -675 1141 -563 
Q 1194 -478 1313 -144 
Q 1328 -97 1363 -6 
L 103 3319 
L 709 3319 
L 1400 1397 
Q 1534 1031 1641 628 
Q 1738 1016 1872 1384 
L 2581 3319 
L 3144 3319 
L 1881 -56 
Q 1678 -603 1566 -809 
Q 1416 -1088 1222 -1217 
Q 1028 -1347 759 -1347 
Q 597 -1347 397 -1278 
z
" transform="scale(0.015625)"/>
       </defs>
       <use xlink:href="#ArialMT-32"/>
       <use xlink:href="#ArialMT-37" x="55.615234"/>
       <use xlink:href="#ArialMT-20" x="111.230469"/>
       <use xlink:href="#ArialMT-3d" x="139.013672"/>
       <use xlink:href="#ArialMT-20" x="197.412109"/>
       <use xlink:href="#ArialMT-79" x="225.195312"/>
      </g>
     </g>
    </g>
    <g id="ytick_3">
     <g id="line2d_32">
      <path d="M 241.082031 203.333199 
L 687.482031 203.333199 
" clip-path="url(#pa2e69ed910)" style="fill: none; stroke: #ffffff; stroke-linecap: round"/>
     </g>
     <g id="text_10">
      <!-- 1 = game_period -->
      <g style="fill: #999999" transform="translate(133.6575 208.005074)scale(0.13 -0.13)">
       <defs>
        <path id="ArialMT-31" d="M 2384 0 
L 1822 0 
L 1822 3584 
Q 1619 3391 1289 3197 
Q 959 3003 697 2906 
L 697 3450 
Q 1169 3672 1522 3987 
Q 1875 4303 2022 4600 
L 2384 4600 
L 2384 0 
z
" transform="scale(0.015625)"/>
        <path id="ArialMT-67" d="M 319 -275 
L 866 -356 
Q 900 -609 1056 -725 
Q 1266 -881 1628 -881 
Q 2019 -881 2231 -725 
Q 2444 -569 2519 -288 
Q 2563 -116 2559 434 
Q 2191 0 1641 0 
Q 956 0 581 494 
Q 206 988 206 1678 
Q 206 2153 378 2554 
Q 550 2956 876 3175 
Q 1203 3394 1644 3394 
Q 2231 3394 2613 2919 
L 2613 3319 
L 3131 3319 
L 3131 450 
Q 3131 -325 2973 -648 
Q 2816 -972 2473 -1159 
Q 2131 -1347 1631 -1347 
Q 1038 -1347 672 -1080 
Q 306 -813 319 -275 
z
M 784 1719 
Q 784 1066 1043 766 
Q 1303 466 1694 466 
Q 2081 466 2343 764 
Q 2606 1063 2606 1700 
Q 2606 2309 2336 2618 
Q 2066 2928 1684 2928 
Q 1309 2928 1046 2623 
Q 784 2319 784 1719 
z
" transform="scale(0.015625)"/>
        <path id="ArialMT-6d" d="M 422 0 
L 422 3319 
L 925 3319 
L 925 2853 
Q 1081 3097 1340 3245 
Q 1600 3394 1931 3394 
Q 2300 3394 2536 3241 
Q 2772 3088 2869 2813 
Q 3263 3394 3894 3394 
Q 4388 3394 4653 3120 
Q 4919 2847 4919 2278 
L 4919 0 
L 4359 0 
L 4359 2091 
Q 4359 2428 4304 2576 
Q 4250 2725 4106 2815 
Q 3963 2906 3769 2906 
Q 3419 2906 3187 2673 
Q 2956 2441 2956 1928 
L 2956 0 
L 2394 0 
L 2394 2156 
Q 2394 2531 2256 2718 
Q 2119 2906 1806 2906 
Q 1569 2906 1367 2781 
Q 1166 2656 1075 2415 
Q 984 2175 984 1722 
L 984 0 
L 422 0 
z
" transform="scale(0.015625)"/>
        <path id="ArialMT-5f" d="M -97 -1272 
L -97 -866 
L 3631 -866 
L 3631 -1272 
L -97 -1272 
z
" transform="scale(0.015625)"/>
        <path id="ArialMT-70" d="M 422 -1272 
L 422 3319 
L 934 3319 
L 934 2888 
Q 1116 3141 1344 3267 
Q 1572 3394 1897 3394 
Q 2322 3394 2647 3175 
Q 2972 2956 3137 2557 
Q 3303 2159 3303 1684 
Q 3303 1175 3120 767 
Q 2938 359 2589 142 
Q 2241 -75 1856 -75 
Q 1575 -75 1351 44 
Q 1128 163 984 344 
L 984 -1272 
L 422 -1272 
z
M 931 1641 
Q 931 1000 1190 694 
Q 1450 388 1819 388 
Q 2194 388 2461 705 
Q 2728 1022 2728 1688 
Q 2728 2322 2467 2637 
Q 2206 2953 1844 2953 
Q 1484 2953 1207 2617 
Q 931 2281 931 1641 
z
" transform="scale(0.015625)"/>
        <path id="ArialMT-69" d="M 425 3934 
L 425 4581 
L 988 4581 
L 988 3934 
L 425 3934 
z
M 425 0 
L 425 3319 
L 988 3319 
L 988 0 
L 425 0 
z
" transform="scale(0.015625)"/>
        <path id="ArialMT-64" d="M 2575 0 
L 2575 419 
Q 2259 -75 1647 -75 
Q 1250 -75 917 144 
Q 584 363 401 755 
Q 219 1147 219 1656 
Q 219 2153 384 2558 
Q 550 2963 881 3178 
Q 1213 3394 1622 3394 
Q 1922 3394 2156 3267 
Q 2391 3141 2538 2938 
L 2538 4581 
L 3097 4581 
L 3097 0 
L 2575 0 
z
M 797 1656 
Q 797 1019 1065 703 
Q 1334 388 1700 388 
Q 2069 388 2326 689 
Q 2584 991 2584 1609 
Q 2584 2291 2321 2609 
Q 2059 2928 1675 2928 
Q 1300 2928 1048 2622 
Q 797 2316 797 1656 
z
" transform="scale(0.015625)"/>
       </defs>
       <use xlink:href="#ArialMT-31"/>
       <use xlink:href="#ArialMT-20" x="55.615234"/>
       <use xlink:href="#ArialMT-3d" x="83.398438"/>
       <use xlink:href="#ArialMT-20" x="141.796875"/>
       <use xlink:href="#ArialMT-67" x="169.580078"/>
       <use xlink:href="#ArialMT-61" x="225.195312"/>
       <use xlink:href="#ArialMT-6d" x="280.810547"/>
       <use xlink:href="#ArialMT-65" x="364.111328"/>
       <use xlink:href="#ArialMT-5f" x="419.726562"/>
       <use xlink:href="#ArialMT-70" x="475.341797"/>
       <use xlink:href="#ArialMT-65" x="530.957031"/>
       <use xlink:href="#ArialMT-72" x="586.572266"/>
       <use xlink:href="#ArialMT-69" x="619.873047"/>
       <use xlink:href="#ArialMT-6f" x="642.089844"/>
       <use xlink:href="#ArialMT-64" x="697.705078"/>
      </g>
     </g>
    </g>
    <g id="ytick_4">
     <g id="line2d_33">
      <path d="M 241.082031 166.274375 
L 687.482031 166.274375 
" clip-path="url(#pa2e69ed910)" style="fill: none; stroke: #ffffff; stroke-linecap: round"/>
     </g>
     <g id="text_11">
      <!-- 0 = last_event -->
      <g style="fill: #999999" transform="translate(150.279219 170.94625)scale(0.13 -0.13)">
       <defs>
        <path id="ArialMT-6c" d="M 409 0 
L 409 4581 
L 972 4581 
L 972 0 
L 409 0 
z
" transform="scale(0.015625)"/>
        <path id="ArialMT-76" d="M 1344 0 
L 81 3319 
L 675 3319 
L 1388 1331 
Q 1503 1009 1600 663 
Q 1675 925 1809 1294 
L 2547 3319 
L 3125 3319 
L 1869 0 
L 1344 0 
z
" transform="scale(0.015625)"/>
        <path id="ArialMT-6e" d="M 422 0 
L 422 3319 
L 928 3319 
L 928 2847 
Q 1294 3394 1984 3394 
Q 2284 3394 2536 3286 
Q 2788 3178 2913 3003 
Q 3038 2828 3088 2588 
Q 3119 2431 3119 2041 
L 3119 0 
L 2556 0 
L 2556 2019 
Q 2556 2363 2490 2533 
Q 2425 2703 2258 2804 
Q 2091 2906 1866 2906 
Q 1506 2906 1245 2678 
Q 984 2450 984 1813 
L 984 0 
L 422 0 
z
" transform="scale(0.015625)"/>
       </defs>
       <use xlink:href="#ArialMT-30"/>
       <use xlink:href="#ArialMT-20" x="55.615234"/>
       <use xlink:href="#ArialMT-3d" x="83.398438"/>
       <use xlink:href="#ArialMT-20" x="141.796875"/>
       <use xlink:href="#ArialMT-6c" x="169.580078"/>
       <use xlink:href="#ArialMT-61" x="191.796875"/>
       <use xlink:href="#ArialMT-73" x="247.412109"/>
       <use xlink:href="#ArialMT-74" x="297.412109"/>
       <use xlink:href="#ArialMT-5f" x="325.195312"/>
       <use xlink:href="#ArialMT-65" x="380.810547"/>
       <use xlink:href="#ArialMT-76" x="436.425781"/>
       <use xlink:href="#ArialMT-65" x="486.425781"/>
       <use xlink:href="#ArialMT-6e" x="542.041016"/>
       <use xlink:href="#ArialMT-74" x="597.65625"/>
      </g>
     </g>
    </g>
    <g id="ytick_5">
     <g id="line2d_34">
      <path d="M 241.082031 129.215551 
L 687.482031 129.215551 
" clip-path="url(#pa2e69ed910)" style="fill: none; stroke: #ffffff; stroke-linecap: round"/>
     </g>
     <g id="text_12">
      <!-- 29.547 = distanceNet_or_shotDistance -->
      <g style="fill: #999999" transform="translate(7.2 133.887426)scale(0.13 -0.13)">
       <defs>
        <path id="ArialMT-35" d="M 266 1200 
L 856 1250 
Q 922 819 1161 601 
Q 1400 384 1738 384 
Q 2144 384 2425 690 
Q 2706 997 2706 1503 
Q 2706 1984 2436 2262 
Q 2166 2541 1728 2541 
Q 1456 2541 1237 2417 
Q 1019 2294 894 2097 
L 366 2166 
L 809 4519 
L 3088 4519 
L 3088 3981 
L 1259 3981 
L 1013 2750 
Q 1425 3038 1878 3038 
Q 2478 3038 2890 2622 
Q 3303 2206 3303 1553 
Q 3303 931 2941 478 
Q 2500 -78 1738 -78 
Q 1113 -78 717 272 
Q 322 622 266 1200 
z
" transform="scale(0.015625)"/>
        <path id="ArialMT-63" d="M 2588 1216 
L 3141 1144 
Q 3050 572 2676 248 
Q 2303 -75 1759 -75 
Q 1078 -75 664 370 
Q 250 816 250 1647 
Q 250 2184 428 2587 
Q 606 2991 970 3192 
Q 1334 3394 1763 3394 
Q 2303 3394 2647 3120 
Q 2991 2847 3088 2344 
L 2541 2259 
Q 2463 2594 2264 2762 
Q 2066 2931 1784 2931 
Q 1359 2931 1093 2626 
Q 828 2322 828 1663 
Q 828 994 1084 691 
Q 1341 388 1753 388 
Q 2084 388 2306 591 
Q 2528 794 2588 1216 
z
" transform="scale(0.015625)"/>
        <path id="ArialMT-4e" d="M 488 0 
L 488 4581 
L 1109 4581 
L 3516 984 
L 3516 4581 
L 4097 4581 
L 4097 0 
L 3475 0 
L 1069 3600 
L 1069 0 
L 488 0 
z
" transform="scale(0.015625)"/>
        <path id="ArialMT-44" d="M 494 0 
L 494 4581 
L 2072 4581 
Q 2606 4581 2888 4516 
Q 3281 4425 3559 4188 
Q 3922 3881 4101 3404 
Q 4281 2928 4281 2316 
Q 4281 1794 4159 1391 
Q 4038 988 3847 723 
Q 3656 459 3429 307 
Q 3203 156 2883 78 
Q 2563 0 2147 0 
L 494 0 
z
M 1100 541 
L 2078 541 
Q 2531 541 2789 625 
Q 3047 709 3200 863 
Q 3416 1078 3536 1442 
Q 3656 1806 3656 2325 
Q 3656 3044 3420 3430 
Q 3184 3816 2847 3947 
Q 2603 4041 2063 4041 
L 1100 4041 
L 1100 541 
z
" transform="scale(0.015625)"/>
       </defs>
       <use xlink:href="#ArialMT-32"/>
       <use xlink:href="#ArialMT-39" x="55.615234"/>
       <use xlink:href="#ArialMT-2e" x="111.230469"/>
       <use xlink:href="#ArialMT-35" x="139.013672"/>
       <use xlink:href="#ArialMT-34" x="194.628906"/>
       <use xlink:href="#ArialMT-37" x="250.244141"/>
       <use xlink:href="#ArialMT-20" x="305.859375"/>
       <use xlink:href="#ArialMT-3d" x="333.642578"/>
       <use xlink:href="#ArialMT-20" x="392.041016"/>
       <use xlink:href="#ArialMT-64" x="419.824219"/>
       <use xlink:href="#ArialMT-69" x="475.439453"/>
       <use xlink:href="#ArialMT-73" x="497.65625"/>
       <use xlink:href="#ArialMT-74" x="547.65625"/>
       <use xlink:href="#ArialMT-61" x="575.439453"/>
       <use xlink:href="#ArialMT-6e" x="631.054688"/>
       <use xlink:href="#ArialMT-63" x="686.669922"/>
       <use xlink:href="#ArialMT-65" x="736.669922"/>
       <use xlink:href="#ArialMT-4e" x="792.285156"/>
       <use xlink:href="#ArialMT-65" x="864.501953"/>
       <use xlink:href="#ArialMT-74" x="920.117188"/>
       <use xlink:href="#ArialMT-5f" x="947.900391"/>
       <use xlink:href="#ArialMT-6f" x="1003.515625"/>
       <use xlink:href="#ArialMT-72" x="1059.130859"/>
       <use xlink:href="#ArialMT-5f" x="1092.431641"/>
       <use xlink:href="#ArialMT-73" x="1148.046875"/>
       <use xlink:href="#ArialMT-68" x="1198.046875"/>
       <use xlink:href="#ArialMT-6f" x="1253.662109"/>
       <use xlink:href="#ArialMT-74" x="1309.277344"/>
       <use xlink:href="#ArialMT-44" x="1337.060547"/>
       <use xlink:href="#ArialMT-69" x="1409.277344"/>
       <use xlink:href="#ArialMT-73" x="1431.494141"/>
       <use xlink:href="#ArialMT-74" x="1481.494141"/>
       <use xlink:href="#ArialMT-61" x="1509.277344"/>
       <use xlink:href="#ArialMT-6e" x="1564.892578"/>
       <use xlink:href="#ArialMT-63" x="1620.507812"/>
       <use xlink:href="#ArialMT-65" x="1670.507812"/>
      </g>
     </g>
    </g>
    <g id="ytick_6">
     <g id="line2d_35">
      <path d="M 241.082031 92.156728 
L 687.482031 92.156728 
" clip-path="url(#pa2e69ed910)" style="fill: none; stroke: #ffffff; stroke-linecap: round"/>
     </g>
     <g id="text_13">
      <!-- 1 = rebound -->
      <g style="fill: #999999" transform="translate(161.832969 96.809306)scale(0.13 -0.13)">
       <defs>
        <path id="ArialMT-62" d="M 941 0 
L 419 0 
L 419 4581 
L 981 4581 
L 981 2947 
Q 1338 3394 1891 3394 
Q 2197 3394 2470 3270 
Q 2744 3147 2920 2923 
Q 3097 2700 3197 2384 
Q 3297 2069 3297 1709 
Q 3297 856 2875 390 
Q 2453 -75 1863 -75 
Q 1275 -75 941 416 
L 941 0 
z
M 934 1684 
Q 934 1088 1097 822 
Q 1363 388 1816 388 
Q 2184 388 2453 708 
Q 2722 1028 2722 1663 
Q 2722 2313 2464 2622 
Q 2206 2931 1841 2931 
Q 1472 2931 1203 2611 
Q 934 2291 934 1684 
z
" transform="scale(0.015625)"/>
       </defs>
       <use xlink:href="#ArialMT-31"/>
       <use xlink:href="#ArialMT-20" x="55.615234"/>
       <use xlink:href="#ArialMT-3d" x="83.398438"/>
       <use xlink:href="#ArialMT-20" x="141.796875"/>
       <use xlink:href="#ArialMT-72" x="169.580078"/>
       <use xlink:href="#ArialMT-65" x="202.880859"/>
       <use xlink:href="#ArialMT-62" x="258.496094"/>
       <use xlink:href="#ArialMT-6f" x="314.111328"/>
       <use xlink:href="#ArialMT-75" x="369.726562"/>
       <use xlink:href="#ArialMT-6e" x="425.341797"/>
       <use xlink:href="#ArialMT-64" x="480.957031"/>
      </g>
     </g>
    </g>
    <g id="ytick_7">
     <g id="line2d_36">
      <path d="M 241.082031 55.097904 
L 687.482031 55.097904 
" clip-path="url(#pa2e69ed910)" style="fill: none; stroke: #ffffff; stroke-linecap: round"/>
     </g>
     <g id="text_14">
      <!-- 66.038 = shot_angle_absolute -->
      <g style="fill: #999999" transform="translate(57.028594 59.769779)scale(0.13 -0.13)">
       <use xlink:href="#ArialMT-36"/>
       <use xlink:href="#ArialMT-36" x="55.615234"/>
       <use xlink:href="#ArialMT-2e" x="111.230469"/>
       <use xlink:href="#ArialMT-30" x="139.013672"/>
       <use xlink:href="#ArialMT-33" x="194.628906"/>
       <use xlink:href="#ArialMT-38" x="250.244141"/>
       <use xlink:href="#ArialMT-20" x="305.859375"/>
       <use xlink:href="#ArialMT-3d" x="333.642578"/>
       <use xlink:href="#ArialMT-20" x="392.041016"/>
       <use xlink:href="#ArialMT-73" x="419.824219"/>
       <use xlink:href="#ArialMT-68" x="469.824219"/>
       <use xlink:href="#ArialMT-6f" x="525.439453"/>
       <use xlink:href="#ArialMT-74" x="581.054688"/>
       <use xlink:href="#ArialMT-5f" x="608.837891"/>
       <use xlink:href="#ArialMT-61" x="664.453125"/>
       <use xlink:href="#ArialMT-6e" x="720.068359"/>
       <use xlink:href="#ArialMT-67" x="775.683594"/>
       <use xlink:href="#ArialMT-6c" x="831.298828"/>
       <use xlink:href="#ArialMT-65" x="853.515625"/>
       <use xlink:href="#ArialMT-5f" x="909.130859"/>
       <use xlink:href="#ArialMT-61" x="964.746094"/>
       <use xlink:href="#ArialMT-62" x="1020.361328"/>
       <use xlink:href="#ArialMT-73" x="1075.976562"/>
       <use xlink:href="#ArialMT-6f" x="1125.976562"/>
       <use xlink:href="#ArialMT-6c" x="1181.591797"/>
       <use xlink:href="#ArialMT-75" x="1203.808594"/>
       <use xlink:href="#ArialMT-74" x="1259.423828"/>
       <use xlink:href="#ArialMT-65" x="1287.207031"/>
      </g>
     </g>
    </g>
    <g id="ytick_8">
     <g id="line2d_37">
      <path d="M 241.082031 277.450845 
L 687.482031 277.450845 
" clip-path="url(#pa2e69ed910)" style="fill: none; stroke: #ffffff; stroke-linecap: round"/>
     </g>
     <g id="text_15">
      <!-- 39 other features -->
      <g style="fill: #262626" transform="translate(133.304062 282.103423)scale(0.13 -0.13)">
       <use xlink:href="#ArialMT-33"/>
       <use xlink:href="#ArialMT-39" x="55.615234"/>
       <use xlink:href="#ArialMT-20" x="111.230469"/>
       <use xlink:href="#ArialMT-6f" x="139.013672"/>
       <use xlink:href="#ArialMT-74" x="194.628906"/>
       <use xlink:href="#ArialMT-68" x="222.412109"/>
       <use xlink:href="#ArialMT-65" x="278.027344"/>
       <use xlink:href="#ArialMT-72" x="333.642578"/>
       <use xlink:href="#ArialMT-20" x="366.943359"/>
       <use xlink:href="#ArialMT-66" x="394.726562"/>
       <use xlink:href="#ArialMT-65" x="422.509766"/>
       <use xlink:href="#ArialMT-61" x="478.125"/>
       <use xlink:href="#ArialMT-74" x="533.740234"/>
       <use xlink:href="#ArialMT-75" x="561.523438"/>
       <use xlink:href="#ArialMT-72" x="617.138672"/>
       <use xlink:href="#ArialMT-65" x="650.439453"/>
       <use xlink:href="#ArialMT-73" x="706.054688"/>
      </g>
     </g>
    </g>
    <g id="ytick_9">
     <g id="line2d_38">
      <path d="M 241.082031 240.392022 
L 687.482031 240.392022 
" clip-path="url(#pa2e69ed910)" style="fill: none; stroke: #ffffff; stroke-linecap: round"/>
     </g>
     <g id="text_16">
      <!--  y -->
      <g style="fill: #262626" transform="translate(221.470469 244.968428)scale(0.13 -0.13)">
       <use xlink:href="#ArialMT-20"/>
       <use xlink:href="#ArialMT-79" x="27.783203"/>
      </g>
     </g>
    </g>
    <g id="ytick_10">
     <g id="line2d_39">
      <path d="M 241.082031 203.333198 
L 687.482031 203.333198 
" clip-path="url(#pa2e69ed910)" style="fill: none; stroke: #ffffff; stroke-linecap: round"/>
     </g>
     <g id="text_17">
      <!--  game_period -->
      <g style="fill: #262626" transform="translate(152.091094 207.985776)scale(0.13 -0.13)">
       <use xlink:href="#ArialMT-20"/>
       <use xlink:href="#ArialMT-67" x="27.783203"/>
       <use xlink:href="#ArialMT-61" x="83.398438"/>
       <use xlink:href="#ArialMT-6d" x="139.013672"/>
       <use xlink:href="#ArialMT-65" x="222.314453"/>
       <use xlink:href="#ArialMT-5f" x="277.929688"/>
       <use xlink:href="#ArialMT-70" x="333.544922"/>
       <use xlink:href="#ArialMT-65" x="389.160156"/>
       <use xlink:href="#ArialMT-72" x="444.775391"/>
       <use xlink:href="#ArialMT-69" x="478.076172"/>
       <use xlink:href="#ArialMT-6f" x="500.292969"/>
       <use xlink:href="#ArialMT-64" x="555.908203"/>
      </g>
     </g>
    </g>
    <g id="ytick_11">
     <g id="line2d_40">
      <path d="M 241.082031 166.274375 
L 687.482031 166.274375 
" clip-path="url(#pa2e69ed910)" style="fill: none; stroke: #ffffff; stroke-linecap: round"/>
     </g>
     <g id="text_18">
      <!--  last_event -->
      <g style="fill: #262626" transform="translate(168.712812 170.926953)scale(0.13 -0.13)">
       <use xlink:href="#ArialMT-20"/>
       <use xlink:href="#ArialMT-6c" x="27.783203"/>
       <use xlink:href="#ArialMT-61" x="50"/>
       <use xlink:href="#ArialMT-73" x="105.615234"/>
       <use xlink:href="#ArialMT-74" x="155.615234"/>
       <use xlink:href="#ArialMT-5f" x="183.398438"/>
       <use xlink:href="#ArialMT-65" x="239.013672"/>
       <use xlink:href="#ArialMT-76" x="294.628906"/>
       <use xlink:href="#ArialMT-65" x="344.628906"/>
       <use xlink:href="#ArialMT-6e" x="400.244141"/>
       <use xlink:href="#ArialMT-74" x="455.859375"/>
      </g>
     </g>
    </g>
    <g id="ytick_12">
     <g id="line2d_41">
      <path d="M 241.082031 129.215551 
L 687.482031 129.215551 
" clip-path="url(#pa2e69ed910)" style="fill: none; stroke: #ffffff; stroke-linecap: round"/>
     </g>
     <g id="text_19">
      <!--  distanceNet_or_shotDistance -->
      <g style="fill: #262626" transform="translate(58.162031 133.868129)scale(0.13 -0.13)">
       <use xlink:href="#ArialMT-20"/>
       <use xlink:href="#ArialMT-64" x="27.783203"/>
       <use xlink:href="#ArialMT-69" x="83.398438"/>
       <use xlink:href="#ArialMT-73" x="105.615234"/>
       <use xlink:href="#ArialMT-74" x="155.615234"/>
       <use xlink:href="#ArialMT-61" x="183.398438"/>
       <use xlink:href="#ArialMT-6e" x="239.013672"/>
       <use xlink:href="#ArialMT-63" x="294.628906"/>
       <use xlink:href="#ArialMT-65" x="344.628906"/>
       <use xlink:href="#ArialMT-4e" x="400.244141"/>
       <use xlink:href="#ArialMT-65" x="472.460938"/>
       <use xlink:href="#ArialMT-74" x="528.076172"/>
       <use xlink:href="#ArialMT-5f" x="555.859375"/>
       <use xlink:href="#ArialMT-6f" x="611.474609"/>
       <use xlink:href="#ArialMT-72" x="667.089844"/>
       <use xlink:href="#ArialMT-5f" x="700.390625"/>
       <use xlink:href="#ArialMT-73" x="756.005859"/>
       <use xlink:href="#ArialMT-68" x="806.005859"/>
       <use xlink:href="#ArialMT-6f" x="861.621094"/>
       <use xlink:href="#ArialMT-74" x="917.236328"/>
       <use xlink:href="#ArialMT-44" x="945.019531"/>
       <use xlink:href="#ArialMT-69" x="1017.236328"/>
       <use xlink:href="#ArialMT-73" x="1039.453125"/>
       <use xlink:href="#ArialMT-74" x="1089.453125"/>
       <use xlink:href="#ArialMT-61" x="1117.236328"/>
       <use xlink:href="#ArialMT-6e" x="1172.851562"/>
       <use xlink:href="#ArialMT-63" x="1228.466797"/>
       <use xlink:href="#ArialMT-65" x="1278.466797"/>
      </g>
     </g>
    </g>
    <g id="ytick_13">
     <g id="line2d_42">
      <path d="M 241.082031 92.156728 
L 687.482031 92.156728 
" clip-path="url(#pa2e69ed910)" style="fill: none; stroke: #ffffff; stroke-linecap: round"/>
     </g>
     <g id="text_20">
      <!--  rebound -->
      <g style="fill: #262626" transform="translate(180.266562 96.809306)scale(0.13 -0.13)">
       <use xlink:href="#ArialMT-20"/>
       <use xlink:href="#ArialMT-72" x="27.783203"/>
       <use xlink:href="#ArialMT-65" x="61.083984"/>
       <use xlink:href="#ArialMT-62" x="116.699219"/>
       <use xlink:href="#ArialMT-6f" x="172.314453"/>
       <use xlink:href="#ArialMT-75" x="227.929688"/>
       <use xlink:href="#ArialMT-6e" x="283.544922"/>
       <use xlink:href="#ArialMT-64" x="339.160156"/>
      </g>
     </g>
    </g>
    <g id="ytick_14">
     <g id="line2d_43">
      <path d="M 241.082031 55.097904 
L 687.482031 55.097904 
" clip-path="url(#pa2e69ed910)" style="fill: none; stroke: #ffffff; stroke-linecap: round"/>
     </g>
     <g id="text_21">
      <!--  shot_angle_absolute -->
      <g style="fill: #262626" transform="translate(107.990625 59.750482)scale(0.13 -0.13)">
       <use xlink:href="#ArialMT-20"/>
       <use xlink:href="#ArialMT-73" x="27.783203"/>
       <use xlink:href="#ArialMT-68" x="77.783203"/>
       <use xlink:href="#ArialMT-6f" x="133.398438"/>
       <use xlink:href="#ArialMT-74" x="189.013672"/>
       <use xlink:href="#ArialMT-5f" x="216.796875"/>
       <use xlink:href="#ArialMT-61" x="272.412109"/>
       <use xlink:href="#ArialMT-6e" x="328.027344"/>
       <use xlink:href="#ArialMT-67" x="383.642578"/>
       <use xlink:href="#ArialMT-6c" x="439.257812"/>
       <use xlink:href="#ArialMT-65" x="461.474609"/>
       <use xlink:href="#ArialMT-5f" x="517.089844"/>
       <use xlink:href="#ArialMT-61" x="572.705078"/>
       <use xlink:href="#ArialMT-62" x="628.320312"/>
       <use xlink:href="#ArialMT-73" x="683.935547"/>
       <use xlink:href="#ArialMT-6f" x="733.935547"/>
       <use xlink:href="#ArialMT-6c" x="789.550781"/>
       <use xlink:href="#ArialMT-75" x="811.767578"/>
       <use xlink:href="#ArialMT-74" x="867.382812"/>
       <use xlink:href="#ArialMT-65" x="895.166016"/>
      </g>
     </g>
    </g>
   </g>
   <g id="patch_3">
    <path d="M 453.821201 106.980257 
L 558.57705 106.980257 
L 558.57705 77.333199 
L 453.821201 77.333199 
L 453.821201 106.980257 
z
" clip-path="url(#pa2e69ed910)" style="fill: none; opacity: 0"/>
   </g>
   <g id="patch_4">
    <path d="M 520.617958 69.921434 
L 262.339174 69.921434 
L 262.339174 40.274375 
L 520.617958 40.274375 
L 520.617958 69.921434 
z
" clip-path="url(#pa2e69ed910)" style="fill: none; opacity: 0"/>
   </g>
   <g id="patch_5">
    <path d="M 511.799964 144.039081 
L 415.862113 144.039081 
L 415.862113 114.392022 
L 511.799964 114.392022 
L 511.799964 144.039081 
z
" clip-path="url(#pa2e69ed910)" style="fill: none; opacity: 0"/>
   </g>
   <g id="patch_6">
    <path d="M 551.080526 181.097904 
L 466.24895 181.097904 
L 466.24895 151.450846 
L 551.080526 151.450846 
L 551.080526 181.097904 
z
" clip-path="url(#pa2e69ed910)" style="fill: none; opacity: 0"/>
   </g>
   <g id="patch_7">
    <path d="M 573.750596 218.156728 
L 505.529524 218.156728 
L 505.529524 188.509669 
L 573.750596 188.509669 
L 573.750596 218.156728 
z
" clip-path="url(#pa2e69ed910)" style="fill: none; opacity: 0"/>
   </g>
   <g id="patch_8">
    <path d="M 595.321362 255.215551 
L 528.199543 255.215551 
L 528.199543 225.568493 
L 595.321362 225.568493 
L 595.321362 255.215551 
z
" clip-path="url(#pa2e69ed910)" style="fill: none; opacity: 0"/>
   </g>
   <g id="patch_9">
    <path d="M 687.482031 292.274375 
L 549.770344 292.274375 
L 549.770344 262.627316 
L 687.482031 262.627316 
L 687.482031 292.274375 
z
" clip-path="url(#pa2e69ed910)" style="fill: none; opacity: 0"/>
   </g>
   <g id="patch_10">
    <path d="M 516.821985 92.156728 
L 511.061985 106.980257 
L 511.061985 106.980257 
L 457.617155 106.980257 
L 457.617155 77.333199 
L 511.061985 77.333199 
L 511.061985 77.333199 
z
" clip-path="url(#pa2e69ed910)" style="fill: #ff0051; stroke: #ff0051; stroke-linejoin: miter"/>
   </g>
   <g id="patch_11">
    <path d="M 304.094239 55.097904 
L 309.854239 40.274375 
L 309.854239 40.274375 
L 516.822004 40.274375 
L 516.822004 69.921434 
L 309.854239 69.921434 
L 309.854239 69.921434 
z
" clip-path="url(#pa2e69ed910)" style="fill: #008bfb; stroke: #008bfb; stroke-linejoin: miter"/>
   </g>
   <g id="patch_12">
    <path d="M 457.617178 129.215551 
L 463.377178 114.392022 
L 463.377178 114.392022 
L 508.004011 114.392022 
L 508.004011 144.039081 
L 463.377178 144.039081 
L 463.377178 144.039081 
z
" clip-path="url(#pa2e69ed910)" style="fill: #008bfb; stroke: #008bfb; stroke-linejoin: miter"/>
   </g>
   <g id="patch_13">
    <path d="M 508.004015 166.274375 
L 513.764015 151.450846 
L 513.764015 151.450846 
L 547.284573 151.450846 
L 547.284573 181.097904 
L 513.764015 181.097904 
L 513.764015 181.097904 
z
" clip-path="url(#pa2e69ed910)" style="fill: #008bfb; stroke: #008bfb; stroke-linejoin: miter"/>
   </g>
   <g id="patch_14">
    <path d="M 547.284589 203.333199 
L 553.044589 188.509669 
L 553.044589 188.509669 
L 569.954642 188.509669 
L 569.954642 218.156728 
L 553.044589 218.156728 
L 553.044589 218.156728 
z
" clip-path="url(#pa2e69ed910)" style="fill: #008bfb; stroke: #008bfb; stroke-linejoin: miter"/>
   </g>
   <g id="patch_15">
    <path d="M 569.954608 240.392022 
L 575.714608 225.568493 
L 575.714608 225.568493 
L 591.525409 225.568493 
L 591.525409 255.215551 
L 575.714608 255.215551 
L 575.714608 255.215551 
z
" clip-path="url(#pa2e69ed910)" style="fill: #008bfb; stroke: #008bfb; stroke-linejoin: miter"/>
   </g>
   <g id="patch_16">
    <path d="M 591.525409 277.450846 
L 597.285409 262.627316 
L 597.285409 262.627316 
L 683.686078 262.627316 
L 683.686078 292.274375 
L 597.285409 292.274375 
L 597.285409 292.274375 
z
" clip-path="url(#pa2e69ed910)" style="fill: #008bfb; stroke: #008bfb; stroke-linejoin: miter"/>
   </g>
   <g id="patch_17">
    <path d="M 241.082031 304.874375 
L 687.482031 304.874375 
" style="fill: none; stroke: #ffffff; stroke-width: 1.25; stroke-linejoin: miter; stroke-linecap: square"/>
   </g>
   <g id="text_22">
    <!-- +0.19 -->
    <g style="fill: #ffffff" transform="translate(472.038633 95.258915)scale(0.12 -0.12)">
     <defs>
      <path id="ArialMT-2b" d="M 1603 741 
L 1603 1997 
L 356 1997 
L 356 2522 
L 1603 2522 
L 1603 3769 
L 2134 3769 
L 2134 2522 
L 3381 2522 
L 3381 1997 
L 2134 1997 
L 2134 741 
L 1603 741 
z
" transform="scale(0.015625)"/>
     </defs>
     <use xlink:href="#ArialMT-2b"/>
     <use xlink:href="#ArialMT-30" x="58.398438"/>
     <use xlink:href="#ArialMT-2e" x="114.013672"/>
     <use xlink:href="#ArialMT-31" x="141.796875"/>
     <use xlink:href="#ArialMT-39" x="197.412109"/>
    </g>
   </g>
   <g id="text_23">
    <!-- −0.69 -->
    <g style="fill: #ffffff" transform="translate(395.277184 58.200092)scale(0.12 -0.12)">
     <use xlink:href="#ArialMT-2212"/>
     <use xlink:href="#ArialMT-30" x="58.398438"/>
     <use xlink:href="#ArialMT-2e" x="114.013672"/>
     <use xlink:href="#ArialMT-36" x="141.796875"/>
     <use xlink:href="#ArialMT-39" x="197.412109"/>
    </g>
   </g>
   <g id="text_24">
    <!-- −0.16 -->
    <g style="fill: #ffffff" transform="translate(467.629657 132.317739)scale(0.12 -0.12)">
     <use xlink:href="#ArialMT-2212"/>
     <use xlink:href="#ArialMT-30" x="58.398438"/>
     <use xlink:href="#ArialMT-2e" x="114.013672"/>
     <use xlink:href="#ArialMT-31" x="141.796875"/>
     <use xlink:href="#ArialMT-36" x="197.412109"/>
    </g>
   </g>
   <g id="text_25">
    <!-- −0.13 -->
    <g style="fill: #ffffff" transform="translate(512.463356 169.376563)scale(0.12 -0.12)">
     <use xlink:href="#ArialMT-2212"/>
     <use xlink:href="#ArialMT-30" x="58.398438"/>
     <use xlink:href="#ArialMT-2e" x="114.013672"/>
     <use xlink:href="#ArialMT-31" x="141.796875"/>
     <use xlink:href="#ArialMT-33" x="197.412109"/>
    </g>
   </g>
   <g id="text_26">
    <!-- −0.07 -->
    <g style="fill: #008bfb" transform="translate(511.922714 206.435386)scale(0.12 -0.12)">
     <use xlink:href="#ArialMT-2212"/>
     <use xlink:href="#ArialMT-30" x="58.398438"/>
     <use xlink:href="#ArialMT-2e" x="114.013672"/>
     <use xlink:href="#ArialMT-30" x="141.796875"/>
     <use xlink:href="#ArialMT-37" x="197.412109"/>
    </g>
   </g>
   <g id="text_27">
    <!-- −0.07 -->
    <g style="fill: #008bfb" transform="translate(534.592733 243.49421)scale(0.12 -0.12)">
     <use xlink:href="#ArialMT-2212"/>
     <use xlink:href="#ArialMT-30" x="58.398438"/>
     <use xlink:href="#ArialMT-2e" x="114.013672"/>
     <use xlink:href="#ArialMT-30" x="141.796875"/>
     <use xlink:href="#ArialMT-37" x="197.412109"/>
    </g>
   </g>
   <g id="text_28">
    <!-- −0.3 -->
    <g style="fill: #ffffff" transform="translate(625.761368 280.553033)scale(0.12 -0.12)">
     <use xlink:href="#ArialMT-2212"/>
     <use xlink:href="#ArialMT-30" x="58.398438"/>
     <use xlink:href="#ArialMT-2e" x="114.013672"/>
     <use xlink:href="#ArialMT-33" x="141.796875"/>
    </g>
   </g>
  </g>
  <g id="axes_2">
   <g id="matplotlib.axis_3">
    <g id="xtick_8">
     <g id="line2d_44">
      <path d="M 683.686078 304.874375 
L 683.686078 27.674375 
" clip-path="url(#pa2e69ed910)" style="fill: none; stroke: #ffffff; stroke-linecap: round"/>
     </g>
     <g id="line2d_45">
      <g>
       <use xlink:href="#mf0b061c235" x="683.686078" y="304.874375" style="fill: #262626; stroke: #262626; stroke-width: 1.25"/>
      </g>
     </g>
     <g id="text_29">
      <!--  -->
      <g style="fill: #262626" transform="translate(663.686078 322.96375)scale(0.12 -0.12)"/>
      <!-- $E[f(X)]$ -->
      <g style="fill: #262626" transform="translate(663.686078 335.656)scale(0.12 -0.12)">
       <defs>
        <path id="DejaVuSans-Oblique-45" d="M 1081 4666 
L 4031 4666 
L 3928 4134 
L 1606 4134 
L 1338 2753 
L 3566 2753 
L 3463 2222 
L 1234 2222 
L 909 531 
L 3284 531 
L 3181 0 
L 172 0 
L 1081 4666 
z
" transform="scale(0.015625)"/>
        <path id="DejaVuSans-5b" d="M 550 4863 
L 1875 4863 
L 1875 4416 
L 1125 4416 
L 1125 -397 
L 1875 -397 
L 1875 -844 
L 550 -844 
L 550 4863 
z
" transform="scale(0.015625)"/>
        <path id="DejaVuSans-Oblique-66" d="M 3059 4863 
L 2969 4384 
L 2419 4384 
Q 2106 4384 1964 4261 
Q 1822 4138 1753 3809 
L 1691 3500 
L 2638 3500 
L 2553 3053 
L 1606 3053 
L 1013 0 
L 434 0 
L 1031 3053 
L 481 3053 
L 563 3500 
L 1113 3500 
L 1159 3744 
Q 1278 4363 1576 4613 
Q 1875 4863 2516 4863 
L 3059 4863 
z
" transform="scale(0.015625)"/>
        <path id="DejaVuSans-28" d="M 1984 4856 
Q 1566 4138 1362 3434 
Q 1159 2731 1159 2009 
Q 1159 1288 1364 580 
Q 1569 -128 1984 -844 
L 1484 -844 
Q 1016 -109 783 600 
Q 550 1309 550 2009 
Q 550 2706 781 3412 
Q 1013 4119 1484 4856 
L 1984 4856 
z
" transform="scale(0.015625)"/>
        <path id="DejaVuSans-Oblique-58" d="M 878 4666 
L 1516 4666 
L 2316 2981 
L 3763 4666 
L 4500 4666 
L 2578 2438 
L 3738 0 
L 3103 0 
L 2163 1966 
L 459 0 
L -275 0 
L 1906 2509 
L 878 4666 
z
" transform="scale(0.015625)"/>
        <path id="DejaVuSans-29" d="M 513 4856 
L 1013 4856 
Q 1481 4119 1714 3412 
Q 1947 2706 1947 2009 
Q 1947 1309 1714 600 
Q 1481 -109 1013 -844 
L 513 -844 
Q 928 -128 1133 580 
Q 1338 1288 1338 2009 
Q 1338 2731 1133 3434 
Q 928 4138 513 4856 
z
" transform="scale(0.015625)"/>
        <path id="DejaVuSans-5d" d="M 1947 4863 
L 1947 -844 
L 622 -844 
L 622 -397 
L 1369 -397 
L 1369 4416 
L 622 4416 
L 622 4863 
L 1947 4863 
z
" transform="scale(0.015625)"/>
       </defs>
       <use xlink:href="#DejaVuSans-Oblique-45" transform="translate(0 0.015625)"/>
       <use xlink:href="#DejaVuSans-5b" transform="translate(63.183594 0.015625)"/>
       <use xlink:href="#DejaVuSans-Oblique-66" transform="translate(102.197266 0.015625)"/>
       <use xlink:href="#DejaVuSans-28" transform="translate(137.402344 0.015625)"/>
       <use xlink:href="#DejaVuSans-Oblique-58" transform="translate(176.416016 0.015625)"/>
       <use xlink:href="#DejaVuSans-29" transform="translate(244.921875 0.015625)"/>
       <use xlink:href="#DejaVuSans-5d" transform="translate(283.935547 0.015625)"/>
      </g>
     </g>
    </g>
    <g id="xtick_9">
     <g id="line2d_46">
      <path d="M 683.686081 304.874375 
L 683.686081 27.674375 
" clip-path="url(#pa2e69ed910)" style="fill: none; stroke: #ffffff; stroke-linecap: round"/>
     </g>
     <g id="line2d_47">
      <g>
       <use xlink:href="#mf0b061c235" x="683.686081" y="304.874375" style="fill: #262626; stroke: #262626; stroke-width: 1.25"/>
      </g>
     </g>
     <g id="text_30">
      <!--  -->
      <g style="fill: #999999" transform="translate(705.686081 323.96375)scale(0.12 -0.12)"/>
      <!-- $ = −2.522$ -->
      <g style="fill: #999999" transform="translate(705.686081 336.656)scale(0.12 -0.12)">
       <defs>
        <path id="DejaVuSans-3d" d="M 678 2906 
L 4684 2906 
L 4684 2381 
L 678 2381 
L 678 2906 
z
M 678 1631 
L 4684 1631 
L 4684 1100 
L 678 1100 
L 678 1631 
z
" transform="scale(0.015625)"/>
        <path id="DejaVuSans-2212" d="M 678 2272 
L 4684 2272 
L 4684 1741 
L 678 1741 
L 678 2272 
z
" transform="scale(0.015625)"/>
        <path id="DejaVuSans-32" d="M 1228 531 
L 3431 531 
L 3431 0 
L 469 0 
L 469 531 
Q 828 903 1448 1529 
Q 2069 2156 2228 2338 
Q 2531 2678 2651 2914 
Q 2772 3150 2772 3378 
Q 2772 3750 2511 3984 
Q 2250 4219 1831 4219 
Q 1534 4219 1204 4116 
Q 875 4013 500 3803 
L 500 4441 
Q 881 4594 1212 4672 
Q 1544 4750 1819 4750 
Q 2544 4750 2975 4387 
Q 3406 4025 3406 3419 
Q 3406 3131 3298 2873 
Q 3191 2616 2906 2266 
Q 2828 2175 2409 1742 
Q 1991 1309 1228 531 
z
" transform="scale(0.015625)"/>
        <path id="DejaVuSans-2e" d="M 684 794 
L 1344 794 
L 1344 0 
L 684 0 
L 684 794 
z
" transform="scale(0.015625)"/>
        <path id="DejaVuSans-35" d="M 691 4666 
L 3169 4666 
L 3169 4134 
L 1269 4134 
L 1269 2991 
Q 1406 3038 1543 3061 
Q 1681 3084 1819 3084 
Q 2600 3084 3056 2656 
Q 3513 2228 3513 1497 
Q 3513 744 3044 326 
Q 2575 -91 1722 -91 
Q 1428 -91 1123 -41 
Q 819 9 494 109 
L 494 744 
Q 775 591 1075 516 
Q 1375 441 1709 441 
Q 2250 441 2565 725 
Q 2881 1009 2881 1497 
Q 2881 1984 2565 2268 
Q 2250 2553 1709 2553 
Q 1456 2553 1204 2497 
Q 953 2441 691 2322 
L 691 4666 
z
" transform="scale(0.015625)"/>
       </defs>
       <use xlink:href="#DejaVuSans-3d" transform="translate(19.482422 0.78125)"/>
       <use xlink:href="#DejaVuSans-2212" transform="translate(122.753906 0.78125)"/>
       <use xlink:href="#DejaVuSans-32" transform="translate(206.542969 0.78125)"/>
       <use xlink:href="#DejaVuSans-2e" transform="translate(270.166016 0.78125)"/>
       <use xlink:href="#DejaVuSans-35" transform="translate(301.953125 0.78125)"/>
       <use xlink:href="#DejaVuSans-32" transform="translate(365.576172 0.78125)"/>
       <use xlink:href="#DejaVuSans-32" transform="translate(429.199219 0.78125)"/>
      </g>
     </g>
    </g>
   </g>
   <g id="patch_18">
    <path d="M 241.082031 304.874375 
L 687.482031 304.874375 
" style="fill: none; stroke: #ffffff; stroke-width: 1.25; stroke-linejoin: miter; stroke-linecap: square"/>
   </g>
  </g>
  <g id="axes_3">
   <g id="matplotlib.axis_4">
    <g id="xtick_10">
     <g id="line2d_48">
      <path d="M 304.094257 304.874375 
L 304.094257 27.674375 
" clip-path="url(#pa2e69ed910)" style="fill: none; stroke: #ffffff; stroke-linecap: round"/>
     </g>
     <g id="line2d_49">
      <defs>
       <path id="m1f863ae9e5" d="M 0 0 
L 0 -6 
" style="stroke: #262626; stroke-width: 1.25"/>
      </defs>
      <g>
       <use xlink:href="#m1f863ae9e5" x="304.094257" y="27.674375" style="fill: #262626; stroke: #262626; stroke-width: 1.25"/>
      </g>
     </g>
     <g id="text_31">
      <!-- $f(x)$ -->
      <g style="fill: #262626" transform="translate(294.094257 15.789375)scale(0.12 -0.12)">
       <defs>
        <path id="DejaVuSans-Oblique-78" d="M 3841 3500 
L 2234 1784 
L 3219 0 
L 2559 0 
L 1819 1388 
L 531 0 
L -166 0 
L 1556 1844 
L 641 3500 
L 1300 3500 
L 1972 2234 
L 3144 3500 
L 3841 3500 
z
" transform="scale(0.015625)"/>
       </defs>
       <use xlink:href="#DejaVuSans-Oblique-66" transform="translate(0 0.015625)"/>
       <use xlink:href="#DejaVuSans-28" transform="translate(35.205078 0.015625)"/>
       <use xlink:href="#DejaVuSans-Oblique-78" transform="translate(74.21875 0.015625)"/>
       <use xlink:href="#DejaVuSans-29" transform="translate(133.398438 0.015625)"/>
      </g>
     </g>
    </g>
    <g id="xtick_11">
     <g id="line2d_50">
      <path d="M 304.09426 304.874375 
L 304.09426 27.674375 
" clip-path="url(#pa2e69ed910)" style="fill: none; stroke: #ffffff; stroke-linecap: round"/>
     </g>
     <g id="line2d_51">
      <g>
       <use xlink:href="#m1f863ae9e5" x="304.09426" y="27.674375" style="fill: #262626; stroke: #262626; stroke-width: 1.25"/>
      </g>
     </g>
     <g id="text_32">
      <!-- $ = −3.747$ -->
      <g style="fill: #999999" transform="translate(316.09426 15.789375)scale(0.12 -0.12)">
       <defs>
        <path id="DejaVuSans-33" d="M 2597 2516 
Q 3050 2419 3304 2112 
Q 3559 1806 3559 1356 
Q 3559 666 3084 287 
Q 2609 -91 1734 -91 
Q 1441 -91 1130 -33 
Q 819 25 488 141 
L 488 750 
Q 750 597 1062 519 
Q 1375 441 1716 441 
Q 2309 441 2620 675 
Q 2931 909 2931 1356 
Q 2931 1769 2642 2001 
Q 2353 2234 1838 2234 
L 1294 2234 
L 1294 2753 
L 1863 2753 
Q 2328 2753 2575 2939 
Q 2822 3125 2822 3475 
Q 2822 3834 2567 4026 
Q 2313 4219 1838 4219 
Q 1578 4219 1281 4162 
Q 984 4106 628 3988 
L 628 4550 
Q 988 4650 1302 4700 
Q 1616 4750 1894 4750 
Q 2613 4750 3031 4423 
Q 3450 4097 3450 3541 
Q 3450 3153 3228 2886 
Q 3006 2619 2597 2516 
z
" transform="scale(0.015625)"/>
        <path id="DejaVuSans-37" d="M 525 4666 
L 3525 4666 
L 3525 4397 
L 1831 0 
L 1172 0 
L 2766 4134 
L 525 4134 
L 525 4666 
z
" transform="scale(0.015625)"/>
        <path id="DejaVuSans-34" d="M 2419 4116 
L 825 1625 
L 2419 1625 
L 2419 4116 
z
M 2253 4666 
L 3047 4666 
L 3047 1625 
L 3713 1625 
L 3713 1100 
L 3047 1100 
L 3047 0 
L 2419 0 
L 2419 1100 
L 313 1100 
L 313 1709 
L 2253 4666 
z
" transform="scale(0.015625)"/>
       </defs>
       <use xlink:href="#DejaVuSans-3d" transform="translate(19.482422 0.78125)"/>
       <use xlink:href="#DejaVuSans-2212" transform="translate(122.753906 0.78125)"/>
       <use xlink:href="#DejaVuSans-33" transform="translate(206.542969 0.78125)"/>
       <use xlink:href="#DejaVuSans-2e" transform="translate(270.166016 0.78125)"/>
       <use xlink:href="#DejaVuSans-37" transform="translate(294.203125 0.78125)"/>
       <use xlink:href="#DejaVuSans-34" transform="translate(357.826172 0.78125)"/>
       <use xlink:href="#DejaVuSans-37" transform="translate(421.449219 0.78125)"/>
      </g>
     </g>
    </g>
   </g>
   <g id="patch_19">
    <path d="M 241.082031 304.874375 
L 687.482031 304.874375 
" style="fill: none; stroke: #ffffff; stroke-width: 1.25; stroke-linejoin: miter; stroke-linecap: square"/>
   </g>
  </g>
 </g>
 <defs>
  <clipPath id="pa2e69ed910">
   <rect x="241.082031" y="27.674375" width="446.4" height="277.2"/>
  </clipPath>
 </defs>
</svg>
